<?xml version="1.0" encoding="UTF-8" standalone="no"?>
<!-- Created with Inkscape (http://www.inkscape.org/) -->

<svg
   version="1.1"
   id="svg1"
   width="454.76001"
   height="305.76401"
   viewBox="0 0 454.75999 305.76401"
   sodipodi:docname="structureB.svg"
   inkscape:export-filename="structureB.png"
   inkscape:export-xdpi="327.60001"
   inkscape:export-ydpi="327.60001"
   inkscape:version="1.4 (e7c3feb100, 2024-10-09)"
   xmlns:inkscape="http://www.inkscape.org/namespaces/inkscape"
   xmlns:sodipodi="http://sodipodi.sourceforge.net/DTD/sodipodi-0.dtd"
   xmlns="http://www.w3.org/2000/svg"
   xmlns:svg="http://www.w3.org/2000/svg">
  <defs
     id="defs1">
    <clipPath
       clipPathUnits="userSpaceOnUse"
       id="clipPath163">
      <path
         d="m 387.927,215.891 h 80.85 v -23.446 h -80.85 z"
         transform="translate(-459.62701,-192.945)"
         id="path163" />
    </clipPath>
    <clipPath
       clipPathUnits="userSpaceOnUse"
       id="clipPath165">
      <path
         d="M 0,245.823 H 554.82 V 0 H 0 Z"
         transform="matrix(1.3333333,0,0,-1.3333333,0,327.764)"
         id="path165" />
    </clipPath>
    <clipPath
       clipPathUnits="userSpaceOnUse"
       id="clipPath167">
      <path
         d="m 384.566,151.932 h 87.573 v -30.533 h -87.573 z"
         transform="translate(-463.19241,-121.89861)"
         id="path167" />
    </clipPath>
    <clipPath
       clipPathUnits="userSpaceOnUse"
       id="clipPath169">
      <path
         d="M 0,245.823 H 554.82 V 0 H 0 Z"
         transform="matrix(1.3333333,0,0,-1.3333333,0,327.764)"
         id="path169" />
    </clipPath>
    <clipPath
       clipPathUnits="userSpaceOnUse"
       id="clipPath171">
      <path
         d="m 387.638,114.873 h 81.548 V 96.5728 h -81.548 z"
         transform="translate(-460.03611,-97.0729)"
         id="path171" />
    </clipPath>
    <clipPath
       clipPathUnits="userSpaceOnUse"
       id="clipPath173">
      <path
         d="M 0,245.823 H 554.82 V 0 H 0 Z"
         transform="matrix(1.3333333,0,0,-1.3333333,0,327.764)"
         id="path173" />
    </clipPath>
    <clipPath
       clipPathUnits="userSpaceOnUse"
       id="clipPath176">
      <path
         d="M 0,245.823 H 554.82 V 0 H 0 Z"
         transform="translate(-429.99511,-97.341902)"
         id="path176" />
    </clipPath>
    <clipPath
       clipPathUnits="userSpaceOnUse"
       id="clipPath178">
      <path
         d="M 0,245.823 H 554.82 V 0 H 0 Z"
         transform="translate(-429.97661,-89.185202)"
         id="path178" />
    </clipPath>
    <clipPath
       clipPathUnits="userSpaceOnUse"
       id="clipPath179">
      <path
         d="m 387.042,90.1819 h 82.511 V 56.7241 h -82.511 z"
         transform="translate(-430.26561,-89.644705)"
         id="path179" />
    </clipPath>
    <clipPath
       clipPathUnits="userSpaceOnUse"
       id="clipPath181">
      <path
         d="M 0,245.823 H 554.82 V 0 H 0 Z"
         transform="matrix(1.3333333,0,0,-1.3333333,0,327.764)"
         id="path181" />
    </clipPath>
    <clipPath
       clipPathUnits="userSpaceOnUse"
       id="clipPath184">
      <path
         d="m 486.65,149.248 h 31.452 V 124.723 H 486.65 Z"
         transform="translate(-509.15531,-125.2233)"
         id="path184" />
    </clipPath>
    <clipPath
       clipPathUnits="userSpaceOnUse"
       id="clipPath186">
      <path
         d="M 0,245.823 H 554.82 V 0 H 0 Z"
         transform="matrix(1.3333333,0,0,-1.3333333,0,327.764)"
         id="path186" />
    </clipPath>
    <clipPath
       clipPathUnits="userSpaceOnUse"
       id="clipPath191">
      <path
         d="m 387.042,189.703 h 82.511 v -33.458 h -82.511 z"
         transform="translate(-430.26561,-189.1657)"
         id="path191" />
    </clipPath>
    <clipPath
       clipPathUnits="userSpaceOnUse"
       id="clipPath193">
      <path
         d="M 0,245.823 H 554.82 V 0 H 0 Z"
         transform="matrix(1.3333333,0,0,-1.3333333,0,327.764)"
         id="path193" />
    </clipPath>
    <clipPath
       clipPathUnits="userSpaceOnUse"
       id="clipPath197">
      <path
         d="M 0,245.823 H 554.82 V 0 H 0 Z"
         transform="translate(-430.26561,-156.7873)"
         id="path197" />
    </clipPath>
    <clipPath
       clipPathUnits="userSpaceOnUse"
       id="clipPath199">
      <path
         d="M 0,245.823 H 554.82 V 0 H 0 Z"
         transform="translate(-430.22661,-150.63591)"
         id="path199" />
    </clipPath>
    <clipPath
       clipPathUnits="userSpaceOnUse"
       id="clipPath201">
      <path
         d="M 0,245.823 H 554.82 V 0 H 0 Z"
         transform="translate(-430.29101,-193.0519)"
         id="path201" />
    </clipPath>
    <clipPath
       clipPathUnits="userSpaceOnUse"
       id="clipPath203">
      <path
         d="M 0,245.823 H 554.82 V 0 H 0 Z"
         transform="translate(-430.25201,-186.901)"
         id="path203" />
    </clipPath>
    <clipPath
       clipPathUnits="userSpaceOnUse"
       id="clipPath205">
      <path
         d="M 0,245.823 H 554.82 V 0 H 0 Z"
         transform="translate(-429.99611,-121.89861)"
         id="path205" />
    </clipPath>
    <clipPath
       clipPathUnits="userSpaceOnUse"
       id="clipPath207">
      <path
         d="M 0,245.823 H 554.82 V 0 H 0 Z"
         transform="translate(-429.94731,-114.1378)"
         id="path207" />
    </clipPath>
    <clipPath
       clipPathUnits="userSpaceOnUse"
       id="clipPath210">
      <path
         d="M 0,245.823 H 554.82 V 0 H 0 Z"
         transform="translate(-429.99411,-57.160299)"
         id="path210" />
    </clipPath>
    <clipPath
       clipPathUnits="userSpaceOnUse"
       id="clipPath212">
      <path
         d="M 0,245.823 H 554.82 V 0 H 0 Z"
         transform="translate(-429.97071,-46.877101)"
         id="path212" />
    </clipPath>
    <clipPath
       clipPathUnits="userSpaceOnUse"
       id="clipPath213">
      <path
         d="m 389.497,47.2712 h 81.548 V 28.9714 h -81.548 z"
         transform="translate(-461.89451,-29.471303)"
         id="path213" />
    </clipPath>
    <clipPath
       clipPathUnits="userSpaceOnUse"
       id="clipPath215">
      <path
         d="M 0,245.823 H 554.82 V 0 H 0 Z"
         transform="matrix(1.3333333,0,0,-1.3333333,0,327.764)"
         id="path215" />
    </clipPath>
    <clipPath
       clipPathUnits="userSpaceOnUse"
       id="clipPath218">
      <path
         d="M 0,245.823 H 554.82 V 0 H 0 Z"
         transform="translate(-470.54491,-38.121203)"
         id="path218" />
    </clipPath>
    <clipPath
       clipPathUnits="userSpaceOnUse"
       id="clipPath220">
      <path
         d="M 0,245.823 H 554.82 V 0 H 0 Z"
         transform="translate(-486.20021,-38.121203)"
         id="path220" />
    </clipPath>
    <clipPath
       clipPathUnits="userSpaceOnUse"
       id="clipPath222">
      <path
         d="M 0,245.823 H 554.82 V 0 H 0 Z"
         transform="translate(-505.51171,-38.121203)"
         id="path222" />
    </clipPath>
    <clipPath
       clipPathUnits="userSpaceOnUse"
       id="clipPath224">
      <path
         d="M 0,245.823 H 554.82 V 0 H 0 Z"
         transform="translate(-511.51171,-38.121203)"
         id="path224" />
    </clipPath>
    <clipPath
       clipPathUnits="userSpaceOnUse"
       id="clipPath226">
      <path
         d="M 0,245.823 H 554.82 V 0 H 0 Z"
         transform="translate(-511.51171,-54.527004)"
         id="path226" />
    </clipPath>
    <clipPath
       clipPathUnits="userSpaceOnUse"
       id="clipPath228">
      <path
         d="M 0,245.823 H 554.82 V 0 H 0 Z"
         transform="translate(-511.51171,-116.9601)"
         id="path228" />
    </clipPath>
    <clipPath
       clipPathUnits="userSpaceOnUse"
       id="clipPath230">
      <path
         d="M 0,245.823 H 554.82 V 0 H 0 Z"
         transform="translate(-511.51171,-125.2233)"
         id="path230" />
    </clipPath>
    <clipPath
       clipPathUnits="userSpaceOnUse"
       id="clipPath232">
      <path
         d="M 0,245.823 H 554.82 V 0 H 0 Z"
         transform="translate(-468.68551,-173.0656)"
         id="path232" />
    </clipPath>
    <clipPath
       clipPathUnits="userSpaceOnUse"
       id="clipPath235">
      <path
         d="M 0,245.823 H 554.82 V 0 H 0 Z"
         transform="translate(-502.38772,-173.1759)"
         id="path235" />
    </clipPath>
    <clipPath
       clipPathUnits="userSpaceOnUse"
       id="clipPath237">
      <path
         d="M 0,245.823 H 554.82 V 0 H 0 Z"
         transform="translate(-502.33012,-147.7057)"
         id="path237" />
    </clipPath>
    <clipPath
       clipPathUnits="userSpaceOnUse"
       id="clipPath239">
      <path
         d="M 0,245.823 H 554.82 V 0 H 0 Z"
         transform="translate(-467.22171,-73.975299)"
         id="path239" />
    </clipPath>
    <clipPath
       clipPathUnits="userSpaceOnUse"
       id="clipPath241">
      <path
         d="M 0,245.823 H 554.82 V 0 H 0 Z"
         transform="translate(-469.48541,-73.982604)"
         id="path241" />
    </clipPath>
    <clipPath
       clipPathUnits="userSpaceOnUse"
       id="clipPath243">
      <path
         d="M 0,245.823 H 554.82 V 0 H 0 Z"
         transform="translate(-467.22171,-73.975299)"
         id="path243" />
    </clipPath>
    <clipPath
       clipPathUnits="userSpaceOnUse"
       id="clipPath245">
      <path
         d="M 0,245.823 H 554.82 V 0 H 0 Z"
         transform="translate(-502.37501,-74.090004)"
         id="path245" />
    </clipPath>
  </defs>
  <sodipodi:namedview
     id="namedview1"
     pagecolor="#ffffff"
     bordercolor="#000000"
     borderopacity="0.25"
     inkscape:showpageshadow="2"
     inkscape:pageopacity="0.0"
     inkscape:pagecheckerboard="0"
     inkscape:deskcolor="#d1d1d1"
     inkscape:zoom="1.7853195"
     inkscape:cx="108.94409"
     inkscape:cy="157.3948"
     inkscape:window-width="1920"
     inkscape:window-height="1008"
     inkscape:window-x="0"
     inkscape:window-y="0"
     inkscape:window-maximized="1"
     inkscape:current-layer="g1">
    <inkscape:page
       x="0"
       y="0"
       inkscape:label="1"
       id="page1"
       width="454.75998"
       height="305.76401"
       margin="7.04252 11.36 5.9039998 11.700013"
       bleed="0" />
  </sodipodi:namedview>
  <g
     id="g1"
     inkscape:groupmode="layer"
     inkscape:label="1">
    <g
       id="group-MC0"
       transform="translate(112.02477)">
      <path
         id="path109"
         d="m 14.278138,15.620645 v 4.21875 H 11.700013 V 7.73002 h 4.15625 c 3.007813,0 4.515625,1.2773437 4.515625,3.828125 0,1.242187 -0.453125,2.234375 -1.359375,2.984375 -0.90625,0.75 -2.042969,1.109375 -3.40625,1.078125 z m 0,-5.8906251 V 13.63627 h 1.109375 c 1.519531,0 2.28125,-0.65625 2.28125,-1.96875 0,-1.289063 -0.75,-1.9375001 -2.25,-1.9375001 z m 7.449219,1.9843751 c 0.394531,-0.21875 0.914062,-0.394531 1.5625,-0.53125 0.65625,-0.132812 1.21875,-0.203125 1.687499,-0.203125 2.414063,0 3.625,1.214844 3.625,3.640625 v 5.21875 H 26.196107 V 18.57377 h -0.03125 c -0.585937,0.992187 -1.445312,1.484375 -2.578124,1.484375 -0.824219,0 -1.480469,-0.234375 -1.96875,-0.703125 -0.492187,-0.46875 -0.734375,-1.101563 -0.734375,-1.90625 0,-1.65625 0.984375,-2.617188 2.953125,-2.890625 l 2.375,-0.328125 c 0,-1 -0.523437,-1.5 -1.5625,-1.5 -1.03125,0 -2.007813,0.3125 -2.921875,0.9375 z m 2.859375,4.203125 c -0.917969,0.125 -1.375,0.539062 -1.375,1.234375 0,0.324218 0.109374,0.585937 0.328125,0.78125 0.226562,0.199218 0.53125,0.296875 0.90625,0.296875 0.507812,0 0.929688,-0.179688 1.265625,-0.546875 0.332031,-0.363282 0.5,-0.816406 0.5,-1.359375 v -0.609375 z m 11.683593,-2.4375 c -0.304688,-0.175781 -0.671875,-0.265625 -1.109375,-0.265625 -0.574218,0 -1.03125,0.21875 -1.375,0.65625 -0.335937,0.4375 -0.5,1.042969 -0.5,1.8125 v 4.15625 H 30.770325 V 11.19877 h 2.515625 v 1.625 h 0.03125 c 0.414062,-1.1875 1.175781,-1.78125 2.28125,-1.78125 0.289063,0 0.515626,0.03906 0.671875,0.109375 z m 1.488281,-1.765625 c 0.394531,-0.21875 0.914063,-0.394531 1.5625,-0.53125 0.65625,-0.132812 1.21875,-0.203125 1.6875,-0.203125 2.414063,0 3.625,1.214844 3.625,3.640625 v 5.21875 h -2.40625 V 18.57377 h -0.03125 c -0.585937,0.992187 -1.445312,1.484375 -2.578125,1.484375 -0.824219,0 -1.480468,-0.234375 -1.968749,-0.703125 -0.492188,-0.46875 -0.734376,-1.101563 -0.734376,-1.90625 0,-1.65625 0.984376,-2.617188 2.953125,-2.890625 l 2.375,-0.328125 c 0,-1 -0.523437,-1.5 -1.5625,-1.5 -1.031249,0 -2.007812,0.3125 -2.921875,0.9375 z m 2.859375,4.203125 c -0.917968,0.125 -1.375,0.539062 -1.375,1.234375 0,0.324218 0.109373,0.585937 0.328125,0.78125 0.226563,0.199218 0.53125,0.296875 0.90625,0.296875 0.507813,0 0.929688,-0.179688 1.265625,-0.546875 0.332032,-0.363282 0.5,-0.816406 0.5,-1.359375 v -0.609375 z m 14.511718,3.921875 h -2.515624 v -1.21875 h -0.03125 c -0.617188,0.960937 -1.515625,1.4375 -2.703125,1.4375 -1.105468,0 -1.980468,-0.390625 -2.625,-1.171875 -0.648438,-0.78125 -0.96875,-1.835938 -0.96875,-3.171875 0,-1.414063 0.359375,-2.554688 1.078126,-3.421875 0.726561,-0.875 1.679686,-1.3125 2.859374,-1.3125 1.125,0 1.910156,0.40625 2.359375,1.21875 h 0.03125 V 7.04252 h 2.515624 z M 52.66095,14.94877 c 0,-0.582031 -0.179688,-1.066406 -0.531251,-1.453125 -0.355468,-0.382813 -0.792968,-0.578125 -1.3125,-0.578125 -0.617186,0 -1.101562,0.246094 -1.453124,0.734375 -0.355469,0.492187 -0.53125,1.152344 -0.53125,1.984375 0,0.792969 0.164062,1.402343 0.5,1.828125 0.34375,0.429687 0.8125,0.640625 1.40625,0.640625 0.5625,0 1.019531,-0.222657 1.375,-0.671875 0.36328,-0.457032 0.546875,-1.046875 0.546875,-1.765625 z m 4.546875,-6.5468751 c 0,-0.3828124 0.132813,-0.6953124 0.40625,-0.9375 0.28125,-0.2382812 0.632812,-0.3593749 1.0625,-0.3593749 0.4375,0 0.789061,0.125 1.0625,0.375 0.269531,0.2421874 0.406249,0.5468749 0.406249,0.9218749 0,0.3867188 -0.140625,0.703125 -0.421874,0.953125 -0.273438,0.25 -0.621095,0.375 -1.046875,0.375 -0.429688,0 -0.78125,-0.125 -1.0625,-0.375 -0.273438,-0.2578125 -0.40625,-0.578125 -0.40625,-0.953125 z m 0.1875,11.4375001 V 11.19877 h 2.515625 v 8.640625 z M 70.520324,18.88627 c 0,1.601562 -0.460937,2.835937 -1.375,3.703125 -0.906249,0.875 -2.218749,1.3125 -3.9375,1.3125 -1.167969,0 -2.093749,-0.167969 -2.781249,-0.5 v -2.15625 c 0.894531,0.519531 1.796875,0.78125 2.703124,0.78125 0.906251,0 1.609376,-0.246094 2.109376,-0.734375 0.507812,-0.480469 0.765624,-1.148438 0.765624,-2 v -0.71875 h -0.03125 c -0.617188,0.992187 -1.523438,1.484375 -2.718751,1.484375 -1.093749,0 -1.968749,-0.390625 -2.625,-1.171875 -0.648437,-0.78125 -0.968749,-1.820313 -0.968749,-3.125 0,-1.445313 0.359374,-2.601563 1.078125,-3.46875 0.718749,-0.875 1.664061,-1.3125 2.843749,-1.3125 1.0625,0 1.859375,0.417969 2.390626,1.25 h 0.03125 v -1.03125 h 2.515625 z M 68.03595,14.964395 c 0,-0.570313 -0.179688,-1.054688 -0.531251,-1.453125 -0.343749,-0.394531 -0.777344,-0.59375 -1.296875,-0.59375 -0.617188,0 -1.105469,0.246094 -1.468749,0.734375 -0.355469,0.480469 -0.531251,1.152344 -0.531251,2.015625 0,0.761719 0.171875,1.359375 0.515626,1.796875 0.343749,0.429687 0.800781,0.640625 1.375,0.640625 0.570312,0 1.035156,-0.21875 1.390625,-0.65625 0.36328,-0.445313 0.546875,-1.023438 0.546875,-1.734375 z m 18.328124,4.875 h -2.515625 v -4.9375 c 0,-1.320313 -0.480469,-1.984375 -1.4375,-1.984375 -0.449218,0 -0.824218,0.203125 -1.125,0.609375 -0.292969,0.398437 -0.4375,0.886719 -0.4375,1.46875 v 4.84375 h -2.515625 v -5 c 0,-1.28125 -0.480469,-1.921875 -1.4375,-1.921875 -0.468749,0 -0.851563,0.195312 -1.140625,0.578125 -0.28125,0.386719 -0.421875,0.890625 -0.421875,1.515625 v 4.828125 H 72.817199 V 11.19877 h 2.515625 v 1.34375 h 0.03125 c 0.30078,-0.488281 0.703124,-0.867188 1.203124,-1.140625 0.5,-0.28125 1.023438,-0.421875 1.578126,-0.421875 1.21875,0 2.050781,0.546875 2.5,1.640625 0.664062,-1.09375 1.632812,-1.640625 2.90625,-1.640625 1.875,0 2.8125,1.164062 2.8125,3.484375 z M 96.110168,7.73002 V 19.839395 H 93.532042 V 7.73002 Z m 5.359372,0 V 19.839395 H 98.891417 V 7.73002 Z m 0,0"
         style="fill:#231f20;fill-opacity:1;fill-rule:nonzero;stroke:none;stroke-width:1.33333"
         aria-label="Paradigm II" />
      <path
         id="path162"
         d="m 209.89923,227.48002 c 0,2.57422 -1.16797,3.85937 -3.5,3.85937 -2.23047,0 -3.34375,-1.23828 -3.34375,-3.71875 v -5.51562 h 1.17188 v 5.46875 c 0,1.8125 0.75781,2.71875 2.28125,2.71875 1.47656,0 2.21875,-0.87891 2.21875,-2.64063 v -5.54687 h 1.17187 z m 3.22656,2.78125 v 3.90625 h -1.14062 v -9.46875 h 1.14062 v 1.125 h 0.0312 c 0.5,-0.85156 1.23828,-1.28125 2.21875,-1.28125 0.83203,0 1.48438,0.29297 1.95313,0.875 0.46875,0.58594 0.70312,1.36719 0.70312,2.34375 0,1.07422 -0.26562,1.9375 -0.79687,2.59375 -0.53125,0.65625 -1.25,0.98437 -2.15625,0.98437 -0.83594,0 -1.47656,-0.35937 -1.92188,-1.07812 z m 0,-1.75 c 0,0.53125 0.16407,0.98047 0.5,1.34375 0.34375,0.35547 0.76954,0.53125 1.28125,0.53125 0.61329,0 1.09375,-0.23438 1.4375,-0.70313 0.34375,-0.46875 0.51563,-1.11718 0.51563,-1.95312 0,-0.69531 -0.16406,-1.24219 -0.48438,-1.64063 -0.32422,-0.39453 -0.76172,-0.59375 -1.3125,-0.59375 -0.5625,0 -1.02734,0.20313 -1.39062,0.60938 -0.36719,0.39844 -0.54688,0.91406 -0.54688,1.54687 z m 12.15235,2.67187 h -1.15625 v -1.07812 h -0.0156 c -0.48047,0.82422 -1.21484,1.23437 -2.20312,1.23437 -0.82422,0 -1.48047,-0.28906 -1.96875,-0.875 -0.48047,-0.58203 -0.71875,-1.375 -0.71875,-2.375 0,-1.0625 0.26953,-1.91406 0.8125,-2.5625 0.55078,-0.65625 1.26953,-0.98437 2.15625,-0.98437 0.875,0 1.51562,0.34375 1.92187,1.03125 h 0.0156 v -3.98438 h 1.15625 z m -1.14063,-3.85937 c 0,-0.51953 -0.17187,-0.95313 -0.51562,-1.29688 -0.34375,-0.35156 -0.76563,-0.53125 -1.26563,-0.53125 -0.61719,0 -1.10156,0.23047 -1.45312,0.6875 -0.34375,0.46094 -0.51563,1.07813 -0.51563,1.85938 0,0.71875 0.16406,1.29297 0.5,1.71875 0.34375,0.41797 0.79688,0.625 1.35938,0.625 0.55078,0 1.0039,-0.20313 1.35937,-0.60938 0.35157,-0.41406 0.53125,-0.92968 0.53125,-1.54687 z m 3.32813,-2.17188 c 0.64453,-0.40625 1.39062,-0.60937 2.23437,-0.60937 1.5625,0 2.34375,0.82422 2.34375,2.46875 v 4.17187 h -1.125 v -1 h -0.0312 c -0.44922,0.77344 -1.10938,1.15625 -1.98438,1.15625 -0.63672,0 -1.14062,-0.17187 -1.51562,-0.51562 -0.36719,-0.34375 -0.54688,-0.80078 -0.54688,-1.375 0,-1.20703 0.71875,-1.91016 2.15625,-2.10938 l 1.92188,-0.28125 c 0,-1.05078 -0.4375,-1.57812 -1.3125,-1.57812 -0.78125,0 -1.49609,0.26172 -2.14063,0.78125 z m 1.92187,2.98438 c -0.53125,0.0742 -0.89844,0.21094 -1.09375,0.40625 -0.19922,0.1875 -0.29687,0.46094 -0.29687,0.8125 0,0.3125 0.10937,0.57031 0.32812,0.76562 0.21875,0.1875 0.50391,0.28125 0.85938,0.28125 0.5,0 0.91015,-0.17187 1.23437,-0.51562 0.33203,-0.35156 0.5,-0.79688 0.5,-1.32813 v -0.625 z m 7.6836,2.98437 c -0.25,0.13282 -0.58985,0.20313 -1.01563,0.20313 -1.15625,0 -1.73437,-0.64063 -1.73437,-1.92188 v -3.75 h -1.125 v -0.95312 h 1.125 v -1.5625 l 1.14062,-0.35938 v 1.92188 h 1.60938 v 0.95312 h -1.60938 v 3.53125 c 0,0.42969 0.0664,0.73438 0.20313,0.92188 0.14453,0.1875 0.39062,0.28125 0.73437,0.28125 0.25,0 0.47266,-0.0703 0.67188,-0.21875 z m 6.53906,-2.89062 h -4.54688 c 0.0195,0.69922 0.20703,1.23437 0.5625,1.60937 0.36328,0.375 0.86719,0.5625 1.51563,0.5625 0.72656,0 1.39453,-0.23437 2,-0.70312 v 1.03125 c -0.57422,0.40625 -1.32813,0.60937 -2.26563,0.60937 -0.9375,0 -1.67187,-0.29687 -2.20312,-0.89062 -0.52344,-0.59375 -0.78125,-1.42188 -0.78125,-2.48438 0,-0.98828 0.28515,-1.80468 0.85937,-2.45312 0.58203,-0.64453 1.30078,-0.96875 2.15625,-0.96875 0.84375,0 1.50391,0.27734 1.98438,0.82812 0.47656,0.54297 0.71875,1.30469 0.71875,2.28125 z m -1.15625,-0.92188 c 0,-0.58203 -0.14063,-1.03125 -0.42188,-1.34375 -0.27343,-0.32031 -0.65234,-0.48437 -1.14062,-0.48437 -0.46094,0 -0.85547,0.17187 -1.1875,0.51562 -0.33594,0.33594 -0.54688,0.77344 -0.64063,1.3125 z m 0,0"
         style="fill:#231f20;fill-opacity:1;fill-rule:nonzero;stroke:none;stroke-width:1.33333"
         aria-label="Update" />
      <g
         opacity="0.300003"
         id="g164"
         clip-path="url(#clipPath165)"
         transform="translate(-484.29218,0.16751934)">
        <path
           d="m 0,0 h -62.55 c -4.777,0 -8.649,3.873 -8.649,8.65 v 5.146 c 0,4.777 3.872,8.65 8.649,8.65 H 0 c 4.777,0 8.65,-3.873 8.65,-8.65 V 8.65 C 8.65,3.873 4.777,0 0,0"
           style="fill:#eeead1;fill-opacity:1;fill-rule:nonzero;stroke:#231f20;stroke-width:1;stroke-linecap:butt;stroke-linejoin:miter;stroke-miterlimit:10;stroke-dasharray:none;stroke-opacity:1"
           transform="matrix(1.3333333,0,0,-1.3333333,612.836,70.504)"
           clip-path="url(#clipPath163)"
           id="path164" />
      </g>
      <path
         id="path166"
         d="m 40.76251,54.616739 c 0,-1.957032 0.523437,-3.515625 1.578125,-4.671875 1.0625,-1.15625 2.5,-1.734375 4.3125,-1.734375 1.675781,0 3.023437,0.570312 4.046875,1.703125 1.03125,1.125 1.546875,2.59375 1.546875,4.40625 0,1.96875 -0.527344,3.531249 -1.578125,4.687499 -1.054688,1.148438 -2.460938,1.71875 -4.21875,1.71875 -1.71875,0 -3.101563,-0.5625 -4.140625,-1.6875 -1.03125,-1.132812 -1.546875,-2.609374 -1.546875,-4.421874 z m 1.640625,-0.125 c 0,1.460937 0.375,2.632812 1.125,3.515624 0.75,0.886719 1.722656,1.328125 2.921875,1.328125 1.289062,0 2.304687,-0.421875 3.046875,-1.265625 0.738281,-0.851562 1.109375,-2.039062 1.109375,-3.562499 0,-1.5625 -0.367188,-2.765625 -1.09375,-3.609375 -0.71875,-0.851563 -1.703125,-1.28125 -2.953125,-1.28125 -1.242188,0 -2.246094,0.449218 -3.015625,1.34375 -0.761719,0.898437 -1.140625,2.074218 -1.140625,3.53125 z m 13.523438,4.812499 v 1.21875 H 54.395322 V 47.726114 h 1.531251 v 5.640625 h 0.03125 c 0.675781,-1.125 1.664063,-1.6875 2.968751,-1.6875 1.08203,0 1.941405,0.382812 2.578124,1.140625 0.632813,0.761718 0.953125,1.804687 0.953125,3.125 0,1.460937 -0.359375,2.621093 -1.078125,3.484374 -0.710938,0.867188 -1.664063,1.296875 -2.859375,1.296875 -1.125,0 -1.980469,-0.472656 -2.5625,-1.421875 z m -0.01563,-2.343749 c 0,0.699218 0.222656,1.292968 0.671875,1.78125 0.45703,0.480468 1.03125,0.718749 1.71875,0.718749 0.8125,0 1.445312,-0.312499 1.90625,-0.937499 0.45703,-0.625 0.6875,-1.488282 0.6875,-2.59375 0,-0.914063 -0.214844,-1.640625 -0.640626,-2.171875 -0.429686,-0.539063 -1.011718,-0.8125 -1.75,-0.8125 -0.75,0 -1.371093,0.273437 -1.859374,0.8125 -0.492188,0.53125 -0.734375,1.210937 -0.734375,2.03125 z m 8.222656,1.6875 c 0.76953,0.562499 1.597656,0.843749 2.484374,0.843749 1.195314,0 1.796875,-0.390625 1.796875,-1.171875 0,-0.332031 -0.132813,-0.609374 -0.390624,-0.828124 -0.261719,-0.21875 -0.792969,-0.472657 -1.593751,-0.765625 -0.960937,-0.382813 -1.585937,-0.765625 -1.875,-1.140625 -0.281249,-0.382813 -0.421874,-0.84375 -0.421874,-1.375 0,-0.769532 0.320312,-1.382813 0.968749,-1.84375 0.656251,-0.457032 1.457032,-0.6875 2.406251,-0.6875 0.726562,0 1.410156,0.125 2.046874,0.375 v 1.484375 c -0.648437,-0.414063 -1.382812,-0.625 -2.203125,-0.625 -0.492187,0 -0.890624,0.109374 -1.203124,0.328125 -0.304688,0.210937 -0.453125,0.484375 -0.453125,0.828125 0,0.34375 0.109373,0.617187 0.328125,0.8125 0.226563,0.1875 0.722656,0.433593 1.484375,0.734375 0.95703,0.367187 1.601562,0.742187 1.9375,1.125 0.343749,0.386718 0.515625,0.859374 0.515625,1.421874 0,0.792969 -0.324219,1.417969 -0.968751,1.875 -0.648437,0.460938 -1.484374,0.6875 -2.515625,0.6875 -0.898437,0 -1.679687,-0.171875 -2.343749,-0.515625 z m 14.925781,-2.0625 h -6.046875 c 0.03125,0.929687 0.285156,1.640624 0.765624,2.140624 0.476563,0.5 1.144532,0.75 2,0.75 0.968751,0 1.859376,-0.304687 2.671876,-0.921874 v 1.359374 c -0.761719,0.542969 -1.773437,0.8125 -3.03125,0.8125 -1.25,0 -2.226563,-0.394531 -2.921875,-1.1875 -0.699219,-0.789062 -1.046875,-1.890624 -1.046875,-3.296874 0,-1.320313 0.378906,-2.410157 1.140624,-3.265625 0.769532,-0.863282 1.726563,-1.296875 2.875,-1.296875 1.125,0 2.003907,0.367187 2.640625,1.09375 0.632814,0.71875 0.953126,1.734375 0.953126,3.046875 z m -1.531251,-1.21875 c 0,-0.78125 -0.183593,-1.382813 -0.546875,-1.8125 -0.367186,-0.425782 -0.882812,-0.640625 -1.546874,-0.640625 -0.605469,0 -1.132812,0.230468 -1.578125,0.6875 -0.449219,0.449218 -0.730468,1.039062 -0.84375,1.765625 z m 8.195313,-1.96875 c -0.25,-0.1875 -0.601562,-0.28125 -1.046874,-0.28125 -0.593751,0 -1.085939,0.28125 -1.468751,0.84375 -0.386719,0.554687 -0.578125,1.28125 -0.578125,2.1875 v 4.374999 h -1.531248 v -8.640624 h 1.531249 v 1.75 h 0.03125 c 0.4375,-1.269532 1.191406,-1.90625 2.265626,-1.90625 0.343749,0 0.609374,0.04297 0.796874,0.125 z m 9.132812,-1.515625 -3.421875,8.640624 h -1.546874 l -3.25,-8.640624 h 1.671875 l 2.109374,6.171875 c 0.175781,0.492187 0.281251,0.902343 0.3125,1.234374 h 0.03125 c 0.05079,-0.4375 0.144531,-0.835937 0.28125,-1.203124 l 2.203125,-6.203125 z m 1.335937,0.59375 c 0.851563,-0.53125 1.843751,-0.796875 2.968751,-0.796875 2.082038,0 3.124998,1.09375 3.124998,3.28125 v 5.562499 h -1.51562 v -1.343749 h -0.0312 c -0.60547,1.031249 -1.492193,1.546874 -2.656256,1.546874 -0.835937,0 -1.5,-0.222656 -2,-0.671875 -0.492188,-0.457031 -0.734375,-1.070312 -0.734375,-1.843749 0,-1.613282 0.953126,-2.554688 2.859375,-2.828125 l 2.562506,-0.359375 c 0,-1.40625 -0.58594,-2.109375 -1.750006,-2.109375 -1.031249,0 -1.976563,0.351562 -2.828125,1.046875 z m 2.5625,3.984375 c -0.710937,0.09375 -1.199218,0.273437 -1.468749,0.53125 -0.273437,0.261718 -0.406251,0.625 -0.406251,1.09375 0,0.40625 0.144532,0.742187 0.4375,1 0.289063,0.261718 0.675782,0.390624 1.156251,0.390624 0.664063,0 1.210937,-0.234375 1.640628,-0.703124 0.4375,-0.46875 0.65625,-1.054688 0.65625,-1.765626 v -0.828124 z m 10.222659,3.968749 c -0.33594,0.1875 -0.78125,0.28125 -1.34375,0.28125 -1.55469,0 -2.32812,-0.859375 -2.32812,-2.578125 v -4.984374 h -1.48438 v -1.265625 h 1.48438 v -2.078125 l 1.53125,-0.484375 v 2.5625 h 2.14062 v 1.265625 h -2.14062 v 4.71875 c 0,0.5625 0.0937,0.96875 0.28125,1.21875 0.19531,0.242187 0.51953,0.359374 0.96875,0.359374 0.34375,0 0.64062,-0.09375 0.89062,-0.28125 z m 1.64063,-11.593749 c 0,-0.269532 0.0859,-0.5 0.26562,-0.6875 0.1875,-0.1875 0.41406,-0.28125 0.6875,-0.28125 0.28125,0 0.51563,0.09375 0.70313,0.28125 0.1875,0.179687 0.28125,0.40625 0.28125,0.6875 0,0.273437 -0.0937,0.496093 -0.28125,0.671875 -0.1875,0.179687 -0.42188,0.265625 -0.70313,0.265625 -0.27344,0 -0.5,-0.08594 -0.6875,-0.265625 -0.17969,-0.175782 -0.26562,-0.398438 -0.26562,-0.671875 z m 0.17187,11.687499 v -8.640624 h 1.53125 v 8.640624 z m 3.69141,-4.234374 c 0,-1.425782 0.39453,-2.550782 1.1875,-3.375 0.80078,-0.820313 1.88281,-1.234375 3.25,-1.234375 1.28906,0 2.30468,0.398437 3.04687,1.1875 0.73828,0.792968 1.10938,1.890625 1.10938,3.296875 0,1.367187 -0.39844,2.468749 -1.1875,3.312499 -0.78125,0.835938 -1.83594,1.25 -3.15625,1.25 -1.29297,0 -2.32422,-0.40625 -3.09375,-1.21875 -0.77344,-0.8125 -1.15625,-1.882812 -1.15625,-3.218749 z m 1.5625,-0.04687 c 0,1 0.25,1.789062 0.75,2.359375 0.5,0.574219 1.17578,0.859375 2.03125,0.859375 0.875,0 1.53906,-0.28125 2,-0.84375 0.45703,-0.5625 0.6875,-1.363282 0.6875,-2.40625 0,-1.050781 -0.23047,-1.859375 -0.6875,-2.421875 -0.46094,-0.5625 -1.125,-0.84375 -2,-0.84375 -0.86719,0 -1.54688,0.296875 -2.04688,0.890625 -0.49219,0.585937 -0.73437,1.386719 -0.73437,2.40625 z m 16.49218,4.28125 h -1.51562 v -4.921875 c 0,-1.769532 -0.65234,-2.65625 -1.95313,-2.65625 -0.66796,0 -1.21874,0.25 -1.65624,0.75 -0.42969,0.5 -0.64063,1.132812 -0.64063,1.890625 v 4.937499 h -1.53125 v -8.640624 h 1.53125 v 1.421875 h 0.0312 c 0.64453,-1.082032 1.58594,-1.625 2.82813,-1.625 0.94531,0 1.66406,0.304687 2.15625,0.90625 0.5,0.605468 0.75,1.492187 0.75,2.65625 z m 0,0"
         style="fill:#231f20;fill-opacity:1;fill-rule:nonzero;stroke:none;stroke-width:1.33333"
         aria-label="Observation" />
      <g
         opacity="0.300003"
         id="g168"
         clip-path="url(#clipPath169)"
         transform="translate(-484.29218,0.16751934)">
        <path
           d="m 0,0 h -69.681 c -4.664,0 -8.446,3.782 -8.446,8.446 v 12.641 c 0,4.665 3.782,8.447 8.446,8.447 H 0 c 4.665,0 8.446,-3.782 8.446,-8.447 V 8.446 C 8.446,3.782 4.665,0 0,0"
           style="fill:#f2b638;fill-opacity:1;fill-rule:nonzero;stroke:#231f20;stroke-width:1;stroke-linecap:butt;stroke-linejoin:miter;stroke-miterlimit:10;stroke-dasharray:none;stroke-opacity:1"
           transform="matrix(1.3333333,0,0,-1.3333333,617.58987,165.23253)"
           clip-path="url(#clipPath167)"
           id="path168" />
      </g>
      <path
         id="path170"
         d="m 62.610169,140.92923 h -1.84375 l -2.015625,-3.35937 c -0.398437,-0.67578 -0.761718,-1.13281 -1.09375,-1.375 -0.335937,-0.23828 -0.734375,-0.35938 -1.203125,-0.35938 h -1.125 v 5.09375 h -1.5625 v -12.10937 h 3.6875 c 1.175782,0 2.097657,0.28906 2.765625,0.85938 0.664063,0.5625 1,1.35546 1,2.375 0,1.67968 -0.898437,2.76562 -2.6875,3.26562 v 0.0469 c 0.332032,0.13672 0.617188,0.33594 0.859375,0.59375 0.25,0.26172 0.566407,0.71094 0.953125,1.34375 z m -7.28125,-10.73437 v 4.26562 h 1.84375 c 0.71875,0 1.296875,-0.20703 1.734375,-0.625 0.445313,-0.41406 0.671875,-0.96093 0.671875,-1.64062 0,-0.625 -0.203125,-1.11328 -0.609375,-1.46875 -0.40625,-0.35156 -0.996093,-0.53125 -1.765625,-0.53125 z m 8.902344,2.6875 c 0.851562,-0.53125 1.84375,-0.79687 2.96875,-0.79687 2.082031,0 3.125,1.09375 3.125,3.28124 v 5.5625 h -1.515625 v -1.34375 h -0.03125 c -0.605468,1.03125 -1.492187,1.54688 -2.65625,1.54688 -0.835937,0 -1.5,-0.22266 -2,-0.67188 -0.492184,-0.45703 -0.734372,-1.07031 -0.734372,-1.84375 0,-1.61328 0.953125,-2.55468 2.859375,-2.82812 l 2.5625,-0.35938 c 0,-1.40625 -0.585937,-2.10937 -1.75,-2.10937 -1.031251,0 -1.976563,0.35156 -2.828125,1.04687 z m 2.5625,3.98437 c -0.710938,0.0937 -1.199219,0.27344 -1.46875,0.53125 -0.273438,0.26172 -0.40625,0.625 -0.40625,1.09375 0,0.40625 0.144531,0.74219 0.4375,1 0.289062,0.26172 0.675781,0.39063 1.15625,0.39063 0.664063,0 1.210938,-0.23438 1.640624,-0.70313 0.4375,-0.46875 0.656251,-1.05468 0.656251,-1.76562 v -0.82813 z m 13.378906,4.0625 h -1.515625 v -4.92187 c 0,-1.76953 -0.652344,-2.65625 -1.953126,-2.65625 -0.667968,0 -1.218749,0.25 -1.656249,0.75 -0.429688,0.5 -0.640625,1.13281 -0.640625,1.89062 v 4.9375 h -1.531249 v -8.64062 h 1.531249 v 1.42187 h 0.03125 c 0.644531,-1.08203 1.585937,-1.62499 2.828124,-1.62499 0.945313,0 1.664063,0.30468 2.156251,0.90625 0.5,0.60546 0.75,1.49218 0.75,2.65624 z m 10.058593,0 h -1.531249 v -1.4375 h -0.03125 c -0.636718,1.09375 -1.617186,1.64063 -2.937499,1.64063 -1.09375,0 -1.964844,-0.39063 -2.609375,-1.17188 -0.648437,-0.78125 -0.968751,-1.83203 -0.968751,-3.15625 0,-1.42578 0.363282,-2.5664 1.093751,-3.42187 0.726563,-0.86328 1.679688,-1.29687 2.859375,-1.29687 1.175781,0 2.03125,0.46093 2.562499,1.37499 h 0.03125 v -5.32812 h 1.531249 z m -1.531249,-5.14062 c 0,-0.69531 -0.23047,-1.27344 -0.6875,-1.73438 -0.449219,-0.46875 -1.007813,-0.70312 -1.671876,-0.70312 -0.8125,0 -1.453124,0.30469 -1.921875,0.90625 -0.468749,0.60547 -0.703125,1.43359 -0.703125,2.48437 0,0.96094 0.222657,1.71875 0.671876,2.28125 0.445312,0.5625 1.046875,0.84375 1.796875,0.84375 0.738281,0 1.343749,-0.27343 1.812499,-0.82812 0.46875,-0.55078 0.703126,-1.23438 0.703126,-2.04688 z m 3.691405,0.90625 c 0,-1.42578 0.394532,-2.55078 1.1875,-3.375 0.800781,-0.82031 1.882813,-1.23437 3.25,-1.23437 1.289063,0 2.304688,0.39843 3.046876,1.18749 0.738286,0.79297 1.109376,1.89063 1.109376,3.29688 0,1.36719 -0.39844,2.46875 -1.187501,3.3125 -0.781251,0.83594 -1.835938,1.25 -3.156251,1.25 -1.292968,0 -2.324219,-0.40625 -3.093749,-1.21875 -0.773438,-0.8125 -1.156251,-1.88281 -1.156251,-3.21875 z m 1.5625,-0.0469 c 0,1 0.25,1.78906 0.75,2.35937 0.5,0.57422 1.175781,0.85938 2.031251,0.85938 0.875,0 1.539062,-0.28125 2,-0.84375 0.45703,-0.5625 0.6875,-1.36329 0.6875,-2.40625 0,-1.05079 -0.23047,-1.85938 -0.6875,-2.42188 -0.460938,-0.5625 -1.125,-0.84375 -2,-0.84375 -0.867188,0 -1.546875,0.29688 -2.046875,0.89063 -0.492188,0.58593 -0.734376,1.38671 -0.734376,2.40625 z m 21.628902,4.28124 h -1.53125 v -4.96875 c 0,-0.9375 -0.14843,-1.60156 -0.4375,-2 -0.29296,-0.40625 -0.77343,-0.60937 -1.4375,-0.60937 -0.5625,0 -1.04687,0.26562 -1.45312,0.79687 -0.39844,0.52344 -0.59375,1.14063 -0.59375,1.85938 v 4.92187 h -1.53125 v -5.125 c 0,-1.63281 -0.63672,-2.45312 -1.90625,-2.45312 -0.58594,0 -1.07031,0.25 -1.45312,0.75 -0.375,0.5 -0.5625,1.13672 -0.5625,1.90625 v 4.92187 h -1.53126 v -8.64062 h 1.53126 v 1.35937 h 0.0312 c 0.61328,-1.03906 1.50781,-1.56249 2.6875,-1.56249 0.58203,0 1.09375,0.16406 1.53125,0.48437 0.44531,0.3125 0.7539,0.74219 0.92187,1.28125 0.64453,-1.17578 1.60157,-1.76562 2.875,-1.76562 1.90625,0 2.85938,1.17187 2.85938,3.51562 z m -73.425775,19.19922 v -8.01562 c 0,-0.66406 0.03516,-1.46094 0.109374,-2.39063 h -0.03125 c -0.136719,0.58594 -0.257812,0.99219 -0.359375,1.21875 l -4,9.1875 h -0.859376 l -3.984374,-9.10937 c -0.09375,-0.20703 -0.214844,-0.64063 -0.359375,-1.29688 h -0.04688 c 0.05079,0.5625 0.07812,1.38282 0.07812,2.45313 v 7.95312 h -1.5 v -12.10937 h 2.125 l 3.5625,8.29687 c 0.269532,0.63672 0.453125,1.13282 0.546876,1.48438 h 0.04688 c 0.269531,-0.73828 0.460937,-1.24219 0.578125,-1.51563 l 3.625,-8.26562 h 2.015625 v 12.10937 z m 3.914062,-4.23437 c 0,-1.42578 0.394531,-2.55078 1.1875,-3.375 0.800781,-0.82031 1.882813,-1.23438 3.25,-1.23438 1.289062,0 2.304687,0.39844 3.046875,1.1875 0.738281,0.79297 1.109375,1.89063 1.109375,3.29688 0,1.36719 -0.398438,2.46875 -1.1875,3.3125 -0.78125,0.83594 -1.835938,1.25 -3.15625,1.25 -1.292969,0 -2.324219,-0.40625 -3.09375,-1.21875 -0.773437,-0.8125 -1.15625,-1.88281 -1.15625,-3.21875 z m 1.5625,-0.0469 c 0,1 0.25,1.78906 0.75,2.35937 0.5,0.57422 1.175781,0.85938 2.03125,0.85938 0.875,0 1.539062,-0.28125 2,-0.84375 0.457031,-0.5625 0.6875,-1.36328 0.6875,-2.40625 0,-1.05078 -0.230469,-1.85938 -0.6875,-2.42188 -0.460938,-0.5625 -1.125,-0.84375 -2,-0.84375 -0.867187,0 -1.546875,0.29688 -2.046875,0.89063 -0.492187,0.58594 -0.734375,1.38672 -0.734375,2.40625 z m 13.332031,4.1875 c -0.335937,0.1875 -0.78125,0.28125 -1.34375,0.28125 -1.554687,0 -2.328125,-0.85938 -2.328125,-2.57813 v -4.98437 h -1.484375 v -1.26562 h 1.484375 v -2.07813 l 1.53125,-0.48437 v 2.5625 h 2.140625 v 1.26562 h -2.140625 v 4.71875 c 0,0.5625 0.09375,0.96875 0.28125,1.21875 0.195313,0.24219 0.519531,0.35938 0.96875,0.35938 0.34375,0 0.640625,-0.0937 0.890625,-0.28125 z m 1.105469,-4.14063 c 0,-1.42578 0.394531,-2.55078 1.1875,-3.375 0.800781,-0.82031 1.882812,-1.23437 3.25,-1.23437 1.289062,0 2.304688,0.39844 3.046874,1.1875 0.738282,0.79297 1.109375,1.89062 1.109375,3.29687 0,1.36719 -0.398437,2.46875 -1.1875,3.3125 -0.781249,0.83594 -1.835937,1.25 -3.156249,1.25 -1.292969,0 -2.324219,-0.40625 -3.09375,-1.21875 -0.773438,-0.81249 -1.15625,-1.8828 -1.15625,-3.21874 z m 1.5625,-0.0469 c 0,1 0.25,1.78907 0.75,2.35938 0.5,0.57422 1.175781,0.85937 2.031249,0.85937 0.875,0 1.539063,-0.28125 2,-0.84375 0.457032,-0.5625 0.6875,-1.36328 0.6875,-2.40625 0,-1.05078 -0.230468,-1.85937 -0.6875,-2.42187 -0.460937,-0.5625 -1.125,-0.84375 -2,-0.84375 -0.867187,0 -1.546874,0.29687 -2.046874,0.89062 -0.492188,0.58595 -0.734375,1.38673 -0.734375,2.40626 z m 13.816406,-2.84374 c -0.25,-0.1875 -0.601563,-0.28125 -1.046876,-0.28125 -0.593749,0 -1.085937,0.28125 -1.468749,0.84375 -0.386719,0.55469 -0.578125,1.28125 -0.578125,2.1875 v 4.375 h -1.53125 v -8.64062 h 1.53125 v 1.75 h 0.03125 c 0.4375,-1.26953 1.191405,-1.90625 2.265624,-1.90625 0.34375,0 0.609376,0.043 0.796876,0.125 z m 14.691405,6.625 c -0.886719,0.46875 -2,0.70313 -3.343749,0.70313 -1.742188,0 -3.132813,-0.55078 -4.171875,-1.65625 -1.03125,-1.10156 -1.546876,-2.5625 -1.546876,-4.375 0,-1.94531 0.582032,-3.51563 1.75,-4.70313 1.164063,-1.1875 2.648438,-1.78125 4.453125,-1.78125 1.156251,0 2.109375,0.16797 2.859375,0.5 v 1.625 c -0.867187,-0.47656 -1.8125,-0.71875 -2.843749,-0.71875 -1.35547,0 -2.460937,0.45313 -3.3125,1.35938 -0.843751,0.89844 -1.265625,2.10547 -1.265625,3.625 0,1.44922 0.394532,2.60156 1.1875,3.45312 0.789062,0.85547 1.828125,1.28125 3.109374,1.28125 1.195313,0 2.238281,-0.26953 3.125,-0.8125 z m 1.660157,-3.73437 c 0,-1.42578 0.394531,-2.55078 1.1875,-3.375 0.80078,-0.82031 1.882812,-1.23438 3.25,-1.23438 1.289062,0 2.304685,0.39844 3.046875,1.1875 0.73828,0.79297 1.10937,1.89063 1.10937,3.29688 0,1.36719 -0.39843,2.46875 -1.1875,3.3125 -0.78124,0.83594 -1.835933,1.25 -3.156245,1.25 -1.292969,0 -2.32422,-0.40625 -3.09375,-1.21875 -0.773438,-0.8125 -1.15625,-1.88281 -1.15625,-3.21875 z m 1.5625,-0.0469 c 0,1 0.25,1.78906 0.75,2.35937 0.5,0.57422 1.17578,0.85938 2.03125,0.85938 0.875,0 1.539062,-0.28125 1.999995,-0.84375 0.45704,-0.5625 0.6875,-1.36328 0.6875,-2.40625 0,-1.05078 -0.23046,-1.85938 -0.6875,-2.42188 -0.460933,-0.5625 -1.124995,-0.84375 -1.999995,-0.84375 -0.867188,0 -1.546875,0.29688 -2.046875,0.89063 -0.492188,0.58594 -0.734375,1.38672 -0.734375,2.40625 z m 16.488275,4.28125 h -1.51562 v -4.92188 c 0,-1.76953 -0.65234,-2.65625 -1.95312,-2.65625 -0.66797,0 -1.21875,0.25 -1.65625,0.75 -0.42969,0.5 -0.64063,1.13282 -0.64063,1.89063 v 4.9375 h -1.53125 v -8.64062 h 1.53125 v 1.42187 h 0.0312 c 0.64454,-1.08203 1.58594,-1.625 2.82813,-1.625 0.94531,0 1.66406,0.30469 2.15625,0.90625 0.5,0.60547 0.75,1.49219 0.75,2.65625 z m 6.69922,-0.0937 c -0.33593,0.1875 -0.78125,0.28125 -1.34375,0.28125 -1.55468,0 -2.32812,-0.85937 -2.32812,-2.57813 v -4.98437 h -1.48438 v -1.26562 h 1.48438 v -2.07813 l 1.53125,-0.48437 v 2.5625 h 2.14062 v 1.26562 h -2.14062 v 4.71875 c 0,0.5625 0.0937,0.96875 0.28125,1.21875 0.19531,0.24219 0.51953,0.35938 0.96875,0.35938 0.34375,0 0.64062,-0.0937 0.89062,-0.28125 z m 6.45313,-7.03125 c -0.25,-0.1875 -0.60156,-0.28125 -1.04688,-0.28125 -0.59375,0 -1.08593,0.28125 -1.46875,0.84375 -0.38672,0.55469 -0.57812,1.28125 -0.57812,2.1875 v 4.375 h -1.53125 v -8.64062 h 1.53125 v 1.75 h 0.0312 c 0.4375,-1.26953 1.19141,-1.90625 2.26563,-1.90625 0.34375,0 0.60937,0.043 0.79687,0.125 z m 0.66406,2.89063 c 0,-1.42579 0.39453,-2.55079 1.1875,-3.375 0.80078,-0.82032 1.88281,-1.23438 3.25,-1.23438 1.28906,0 2.30469,0.39844 3.04688,1.1875 0.73828,0.79297 1.10937,1.89063 1.10937,3.29688 0,1.36718 -0.39844,2.46874 -1.1875,3.3125 -0.78125,0.83593 -1.83594,1.25 -3.15625,1.25 -1.29297,0 -2.32422,-0.40626 -3.09375,-1.21876 -0.77344,-0.8125 -1.15625,-1.88281 -1.15625,-3.21874 z m 1.5625,-0.0469 c 0,1 0.25,1.78906 0.75,2.35937 0.5,0.57422 1.17578,0.85937 2.03125,0.85937 0.875,0 1.53906,-0.28124 2,-0.84374 0.45703,-0.5625 0.6875,-1.36329 0.6875,-2.40626 0,-1.05078 -0.23047,-1.85937 -0.6875,-2.42187 -0.46094,-0.5625 -1.125,-0.84375 -2,-0.84375 -0.86719,0 -1.54687,0.29688 -2.04687,0.89063 -0.49219,0.58593 -0.73438,1.38671 -0.73438,2.40625 z m 9.17578,4.28124 v -12.79686 h 1.53125 v 12.79687 z m 0,0"
         style="fill:#231f20;fill-opacity:1;fill-rule:nonzero;stroke:none;stroke-width:1.33333"
         aria-label="Random &#10;Motor Control " />
      <g
         opacity="0.300003"
         id="g172"
         clip-path="url(#clipPath173)"
         transform="translate(-484.29218,0.16751934)">
        <path
           d="m 0,0 h -63.248 c -4.777,0 -8.65,3.873 -8.65,8.65 0,4.777 3.873,8.65 8.65,8.65 H 0 C 4.776,17.3 8.649,13.427 8.649,8.65 8.649,3.873 4.776,0 0,0"
           style="fill:#eeead1;fill-opacity:1;fill-rule:nonzero;stroke:#231f20;stroke-width:1;stroke-linecap:butt;stroke-linejoin:miter;stroke-miterlimit:10;stroke-dasharray:none;stroke-opacity:1"
           transform="matrix(1.3333333,0,0,-1.3333333,613.38147,198.33347)"
           clip-path="url(#clipPath171)"
           id="path172" />
      </g>
      <path
         id="path174"
         d="m 73.235169,191.78471 h -1.734375 l -1.234375,-3.3125 h -5.03125 l -1.171875,3.3125 h -1.71875 l 4.609375,-12.10937 h 1.671875 z m -3.453125,-4.6875 -1.828125,-5.03125 c -0.05469,-0.15625 -0.117188,-0.4375 -0.1875,-0.84375 h -0.03125 c -0.0625,0.36719 -0.132812,0.64844 -0.203125,0.84375 l -1.8125,5.03125 z m 10.984375,4.29688 c -0.667968,0.39453 -1.464843,0.59375 -2.390624,0.59375 -1.25,0 -2.257814,-0.39844 -3.015626,-1.20313 -0.761719,-0.80078 -1.140625,-1.84375 -1.140625,-3.125 0,-1.41406 0.40625,-2.55469 1.21875,-3.42187 0.820313,-0.86329 1.921875,-1.29688 3.296875,-1.29688 0.789063,0 1.46875,0.14063 2.03125,0.42188 v 1.51562 c -0.605468,-0.44531 -1.28125,-0.67187 -2.03125,-0.67187 -0.875,0 -1.589844,0.30468 -2.140625,0.90625 -0.542968,0.60546 -0.8125,1.41406 -0.8125,2.42187 0,1 0.253907,1.78125 0.765625,2.34375 0.519531,0.5625 1.222656,0.84375 2.109375,0.84375 0.738281,0 1.441407,-0.24219 2.109375,-0.73437 z m 6.187499,0.29687 c -0.335937,0.1875 -0.781249,0.28125 -1.343749,0.28125 -1.554688,0 -2.328125,-0.85937 -2.328125,-2.57812 v -4.98438 h -1.484375 v -1.26562 h 1.484375 v -2.07813 l 1.53125,-0.48437 v 2.5625 h 2.140624 v 1.26562 h -2.140624 v 4.71875 c 0,0.5625 0.09375,0.96875 0.28125,1.21875 0.195312,0.24219 0.519532,0.35938 0.96875,0.35938 0.34375,0 0.640624,-0.0937 0.890624,-0.28125 z m 1.640626,-11.59375 c 0,-0.26953 0.08593,-0.5 0.265625,-0.6875 0.1875,-0.1875 0.414063,-0.28125 0.6875,-0.28125 0.281249,0 0.515625,0.0937 0.703125,0.28125 0.1875,0.17969 0.28125,0.40625 0.28125,0.6875 0,0.27344 -0.09375,0.49609 -0.28125,0.67188 -0.1875,0.17968 -0.421876,0.26562 -0.703125,0.26562 -0.273437,0 -0.5,-0.0859 -0.6875,-0.26562 -0.179688,-0.17579 -0.265625,-0.39844 -0.265625,-0.67188 z m 0.171874,11.6875 v -8.64062 h 1.531251 v 8.64062 z m 3.691407,-4.23437 c 0,-1.42579 0.394531,-2.55079 1.1875,-3.375 0.800781,-0.82032 1.882812,-1.23438 3.25,-1.23438 1.289062,0 2.304688,0.39844 3.046874,1.1875 0.738281,0.79297 1.109381,1.89063 1.109381,3.29688 0,1.36718 -0.39844,2.46875 -1.187505,3.3125 -0.78125,0.83593 -1.835938,1.25 -3.15625,1.25 -1.292969,0 -2.324219,-0.40625 -3.093749,-1.21875 -0.773439,-0.8125 -1.156251,-1.88282 -1.156251,-3.21875 z m 1.5625,-0.0469 c 0,1 0.25,1.78906 0.75,2.35938 0.5,0.57421 1.175781,0.85937 2.031251,0.85937 0.875,0 1.539061,-0.28125 1.999999,-0.84375 0.457031,-0.5625 0.6875,-1.36328 0.6875,-2.40625 0,-1.05078 -0.230469,-1.85937 -0.6875,-2.42187 -0.460938,-0.5625 -1.124999,-0.84375 -1.999999,-0.84375 -0.867188,0 -1.546876,0.29687 -2.046876,0.89062 -0.492187,0.58594 -0.734375,1.38672 -0.734375,2.40625 z m 16.488285,4.28125 h -1.51563 v -4.92187 c 0,-1.76954 -0.65234,-2.65625 -1.95312,-2.65625 -0.66797,0 -1.21875,0.25 -1.65625,0.75 -0.42969,0.5 -0.64063,1.13281 -0.64063,1.89062 v 4.9375 h -1.53125 v -8.64062 h 1.53125 v 1.42187 h 0.0312 c 0.64453,-1.08203 1.58594,-1.625 2.82813,-1.625 0.94531,0 1.66406,0.30469 2.15625,0.90625 0.5,0.60547 0.75,1.49219 0.75,2.65625 z m 0,0"
         style="fill:#231f20;fill-opacity:1;fill-rule:nonzero;stroke:none;stroke-width:1.33333"
         aria-label="Action" />
      <path
         id="path175"
         d="M 0,0 -0.014,-5.894"
         style="fill:none;stroke:#231f20;stroke-width:0.75;stroke-linecap:butt;stroke-linejoin:miter;stroke-miterlimit:10;stroke-dasharray:none;stroke-opacity:1"
         transform="matrix(1.3333333,0,0,-1.3333333,89.034622,198.14232)"
         clip-path="url(#clipPath176)" />
      <path
         id="path177"
         d="M 0,0 C -0.394,1.066 -1.064,2.389 -1.776,3.209 L 0.006,2.56 1.79,3.201 C 1.074,2.384 0.396,1.064 0,0"
         style="fill:#231f20;fill-opacity:1;fill-rule:nonzero;stroke:none"
         transform="matrix(1.3333333,0,0,-1.3333333,89.009952,209.01792)"
         clip-path="url(#clipPath178)" />
      <g
         opacity="0.300003"
         id="g180"
         clip-path="url(#clipPath181)"
         transform="translate(-484.29218,0.16751934)">
        <path
           d="M 0,0 -41.838,-15.731 0,-32.379 38.012,-15.731 Z"
           style="fill:#78c832;fill-opacity:1;fill-rule:nonzero;stroke:#231f20;stroke-width:1;stroke-linecap:butt;stroke-linejoin:miter;stroke-miterlimit:10;stroke-dasharray:none;stroke-opacity:1"
           transform="matrix(1.3333333,0,0,-1.3333333,573.68747,208.23773)"
           clip-path="url(#clipPath179)"
           id="path180" />
      </g>
      <path
         id="path182"
         d="m 54.465635,231.97611 c 0.375,0.32422 0.867187,0.58984 1.484375,0.79687 0.625,0.21094 1.210937,0.3125 1.765625,0.3125 1.695312,0 2.546875,-0.60156 2.546875,-1.8125 0,-0.33203 -0.09375,-0.63281 -0.28125,-0.90625 -0.179688,-0.26953 -0.429688,-0.50781 -0.75,-0.71875 -0.3125,-0.20703 -0.90625,-0.53125 -1.78125,-0.96875 -1.210938,-0.60156 -2.007813,-1.16015 -2.390625,-1.67187 -0.386719,-0.51953 -0.578125,-1.11328 -0.578125,-1.78125 0,-1.00781 0.398437,-1.80469 1.203125,-2.39062 0.8125,-0.59375 1.832031,-0.89063 3.0625,-0.89063 1.195312,0 2.078125,0.14844 2.640625,0.4375 v 1.70313 c -0.730469,-0.5 -1.652344,-0.75 -2.765625,-0.75 -0.742188,0 -1.34375,0.15625 -1.8125,0.46875 -0.460938,0.30468 -0.6875,0.73046 -0.6875,1.28125 0,0.49218 0.160156,0.89062 0.484375,1.20312 0.320312,0.30469 1.019531,0.71875 2.09375,1.25 1.1875,0.57422 2.015625,1.14844 2.484375,1.71875 0.476562,0.5625 0.71875,1.19922 0.71875,1.90625 0,1.0625 -0.386719,1.88281 -1.15625,2.45312 -0.773438,0.5625 -1.839844,0.84375 -3.203125,0.84375 -0.480469,0 -1.042969,-0.0703 -1.6875,-0.20312 -0.636719,-0.13281 -1.101563,-0.30078 -1.390625,-0.5 z m 16.734375,2.28125 h -1.531251 v -1.35938 h -0.03125 c -0.585937,1.04297 -1.476563,1.5625 -2.671876,1.5625 -2.042968,0 -3.062499,-1.22265 -3.062499,-3.67187 v -5.17187 h 1.515625 v 4.93749 c 0,1.76172 0.671875,2.64063 2.015625,2.64063 0.664062,0 1.203125,-0.24219 1.609374,-0.73438 0.414063,-0.5 0.625,-1.125 0.625,-1.875 v -4.96874 h 1.531251 z m 8.699218,-0.39063 c -0.667969,0.39454 -1.464844,0.59375 -2.390625,0.59375 -1.25,0 -2.257812,-0.39843 -3.015625,-1.20312 -0.761719,-0.80078 -1.140625,-1.84375 -1.140625,-3.125 0,-1.41406 0.40625,-2.55469 1.21875,-3.42188 0.820312,-0.86328 1.921875,-1.29687 3.296875,-1.29687 0.789062,0 1.46875,0.14063 2.03125,0.42188 v 1.51562 c -0.605469,-0.44531 -1.28125,-0.67188 -2.03125,-0.67188 -0.875,0 -1.589844,0.30469 -2.140625,0.90625 -0.542968,0.60547 -0.8125,1.41407 -0.8125,2.42188 0,1 0.253906,1.78125 0.765625,2.34375 0.519532,0.5625 1.222656,0.84375 2.109374,0.84375 0.738282,0 1.441407,-0.24219 2.109376,-0.73438 z m 8.015624,0 c -0.667968,0.39454 -1.464842,0.59375 -2.390624,0.59375 -1.25,0 -2.257813,-0.39843 -3.015625,-1.20312 -0.761719,-0.80078 -1.140625,-1.84375 -1.140625,-3.125 0,-1.41406 0.40625,-2.55469 1.21875,-3.42188 0.820312,-0.86328 1.921875,-1.29687 3.296875,-1.29687 0.789063,0 1.468749,0.14063 2.031249,0.42188 v 1.51562 c -0.605468,-0.44531 -1.281249,-0.67188 -2.031249,-0.67188 -0.875,0 -1.589844,0.30469 -2.140625,0.90625 -0.542968,0.60547 -0.8125,1.41407 -0.8125,2.42188 0,1 0.253906,1.78125 0.765625,2.34375 0.519531,0.5625 1.222656,0.84375 2.109375,0.84375 0.738281,0 1.441406,-0.24219 2.109374,-0.73438 z m 9.078125,-3.54687 h -6.046874 c 0.03125,0.92969 0.285156,1.64062 0.765625,2.14062 0.476563,0.5 1.144531,0.75 2,0.75 0.968749,0 1.859375,-0.30468 2.671875,-0.92187 v 1.35937 c -0.761719,0.54297 -1.773438,0.8125 -3.031251,0.8125 -1.25,0 -2.226561,-0.39453 -2.921875,-1.1875 -0.699218,-0.78906 -1.046874,-1.89062 -1.046874,-3.29687 0,-1.32031 0.378906,-2.41016 1.140625,-3.26563 0.769531,-0.86328 1.726563,-1.29687 2.875,-1.29687 1.125,0 2.003905,0.36719 2.640624,1.09375 0.632813,0.71875 0.953125,1.73437 0.953125,3.04687 z m -1.531249,-1.21875 c 0,-0.78125 -0.183595,-1.38281 -0.546876,-1.8125 -0.367187,-0.42578 -0.882812,-0.64063 -1.546875,-0.64063 -0.605468,0 -1.132812,0.23047 -1.578125,0.6875 -0.449219,0.44922 -0.730468,1.03907 -0.843749,1.76563 z m 3.085937,3.28125 c 0.769531,0.5625 1.597655,0.84375 2.484375,0.84375 1.19531,0 1.79687,-0.39063 1.79687,-1.17188 0,-0.33203 -0.13281,-0.60937 -0.39062,-0.82812 -0.26172,-0.21875 -0.79297,-0.47266 -1.59375,-0.76563 -0.960937,-0.38281 -1.585937,-0.76562 -1.875,-1.14062 -0.281249,-0.38281 -0.421875,-0.84375 -0.421875,-1.375 0,-0.76953 0.320312,-1.38281 0.96875,-1.84375 0.656255,-0.45703 1.457035,-0.6875 2.406255,-0.6875 0.72656,0 1.41015,0.125 2.04687,0.375 v 1.48437 c -0.64844,-0.41406 -1.38281,-0.625 -2.20313,-0.625 -0.49218,0 -0.89062,0.10938 -1.20312,0.32813 -0.30469,0.21094 -0.45312,0.48437 -0.45312,0.82812 0,0.34375 0.10937,0.61719 0.32812,0.8125 0.22656,0.1875 0.72266,0.4336 1.48438,0.73438 0.95703,0.36719 1.60156,0.74219 1.9375,1.125 0.34374,0.38672 0.51562,0.85937 0.51562,1.42187 0,0.79297 -0.32422,1.41797 -0.96875,1.875 -0.64844,0.46094 -1.48437,0.6875 -2.51563,0.6875 -0.898433,0 -1.679682,-0.17187 -2.343745,-0.51562 z m 7.410155,0 c 0.76953,0.5625 1.59766,0.84375 2.48438,0.84375 1.19531,0 1.79687,-0.39063 1.79687,-1.17188 0,-0.33203 -0.13281,-0.60937 -0.39062,-0.82812 -0.26172,-0.21875 -0.79297,-0.47266 -1.59375,-0.76563 -0.96094,-0.38281 -1.58594,-0.76562 -1.875,-1.14062 -0.28125,-0.38281 -0.42188,-0.84375 -0.42188,-1.375 0,-0.76953 0.32031,-1.38281 0.96875,-1.84375 0.65625,-0.45703 1.45703,-0.6875 2.40625,-0.6875 0.72656,0 1.41016,0.125 2.04688,0.375 v 1.48437 c -0.64844,-0.41406 -1.38282,-0.625 -2.20313,-0.625 -0.49219,0 -0.89062,0.10938 -1.20312,0.32813 -0.30469,0.21094 -0.45313,0.48437 -0.45313,0.82812 0,0.34375 0.10937,0.61719 0.32813,0.8125 0.22656,0.1875 0.72265,0.4336 1.48437,0.73438 0.95703,0.36719 1.60156,0.74219 1.9375,1.125 0.34375,0.38672 0.51563,0.85937 0.51563,1.42187 0,0.79297 -0.32422,1.41797 -0.96875,1.875 -0.64844,0.46094 -1.48438,0.6875 -2.51563,0.6875 -0.89844,0 -1.67969,-0.17187 -2.34375,-0.51562 z m 9.28125,-1.5 c -0.13672,-0.38281 -0.20312,-0.79688 -0.20312,-1.23438 0,-0.34375 0.0781,-0.6914 0.23437,-1.04687 0.15625,-0.35156 0.55469,-0.83594 1.20313,-1.45313 0.65625,-0.62499 1.05468,-1.09374 1.20312,-1.40624 0.14453,-0.3125 0.21875,-0.60938 0.21875,-0.89063 0,-0.5 -0.17969,-0.89062 -0.53125,-1.17187 -0.35547,-0.28907 -0.80469,-0.4375 -1.34375,-0.4375 -0.96094,0 -1.79297,0.375 -2.5,1.125 v -1.60938 c 0.86328,-0.53906 1.76563,-0.8125 2.70313,-0.8125 0.95703,0 1.72656,0.24609 2.3125,0.73438 0.58203,0.48046 0.875,1.14062 0.875,1.98437 0,0.39844 -0.0898,0.80469 -0.26563,1.21875 -0.16797,0.41797 -0.61719,0.96875 -1.34375,1.65625 -0.54297,0.51172 -0.90625,0.91406 -1.09375,1.20312 -0.1875,0.29297 -0.28125,0.60938 -0.28125,0.95313 0,0.375 0.0859,0.77344 0.26563,1.1875 z m -0.20312,2.54687 c 0,-0.26953 0.0977,-0.5 0.29687,-0.6875 0.19531,-0.19531 0.4375,-0.29687 0.71875,-0.29687 0.26953,0 0.50391,0.10156 0.70313,0.29687 0.19531,0.1875 0.29687,0.41797 0.29687,0.6875 0,0.26172 -0.10156,0.49219 -0.29687,0.6875 -0.1875,0.19532 -0.41407,0.29688 -0.67188,0.29688 -0.3125,0 -0.57031,-0.10156 -0.76562,-0.29688 -0.1875,-0.19531 -0.28125,-0.42578 -0.28125,-0.6875 z m 0,0"
         style="fill:#231f20;fill-opacity:1;fill-rule:nonzero;stroke:none;stroke-width:1.33333"
         aria-label="Success?" />
      <path
         id="path183"
         d="m 98.266413,253.36283 -2.984375,5.73437 v 3.34375 h -1.171875 v -3.3125 l -2.921875,-5.76562 h 1.34375 l 1.96875,4.01562 c 0,0.0117 0.07031,0.20313 0.21875,0.57813 h 0.01563 c 0.03906,-0.15625 0.117188,-0.34375 0.234375,-0.5625 l 2.0625,-4.03125 z m 5.249997,6.125 h -4.546872 c 0.01953,0.69922 0.207031,1.23437 0.5625,1.60937 0.363281,0.375 0.867192,0.5625 1.515622,0.5625 0.72657,0 1.39453,-0.23437 2,-0.70312 v 1.03125 c -0.57422,0.40625 -1.32812,0.60937 -2.26562,0.60937 -0.937502,0 -1.671877,-0.29687 -2.203127,-0.89062 -0.523438,-0.59375 -0.78125,-1.42188 -0.78125,-2.48438 0,-0.98828 0.285156,-1.80468 0.859375,-2.45312 0.582031,-0.64453 1.300781,-0.96875 2.156252,-0.96875 0.84375,0 1.5039,0.27734 1.98437,0.82812 0.47657,0.54297 0.71875,1.30469 0.71875,2.28125 z m -1.15625,-0.92188 c 0,-0.58203 -0.14062,-1.03125 -0.42187,-1.34375 -0.27344,-0.32031 -0.65235,-0.48437 -1.14063,-0.48437 -0.46093,0 -0.855466,0.17187 -1.187497,0.51562 -0.335938,0.33594 -0.546875,0.77344 -0.640625,1.3125 z m 2.3086,2.46875 c 0.58203,0.41797 1.20703,0.625 1.875,0.625 0.89453,0 1.34375,-0.28906 1.34375,-0.875 0,-0.25 -0.10156,-0.45312 -0.29688,-0.60937 -0.19922,-0.16406 -0.59375,-0.35938 -1.1875,-0.57813 -0.71875,-0.28906 -1.1875,-0.57812 -1.40625,-0.85937 -0.21094,-0.28125 -0.3125,-0.625 -0.3125,-1.03125 0,-0.57031 0.23828,-1.03125 0.71875,-1.375 0.48828,-0.35156 1.08594,-0.53125 1.79688,-0.53125 0.55078,0 1.0664,0.10156 1.54687,0.29687 v 1.10938 c -0.49219,-0.3125 -1.04297,-0.46875 -1.65625,-0.46875 -0.36719,0 -0.66406,0.0781 -0.89062,0.23437 -0.23047,0.15625 -0.34375,0.3711 -0.34375,0.64063 0,0.25 0.082,0.44922 0.25,0.59375 0.16406,0.14844 0.53125,0.33594 1.09375,0.5625 0.72656,0.27344 1.21875,0.55469 1.46875,0.84375 0.25781,0.28125 0.39062,0.63672 0.39062,1.0625 0,0.59375 -0.24609,1.0625 -0.73437,1.40625 -0.49219,0.34375 -1.1211,0.51562 -1.89063,0.51562 -0.67969,0 -1.26562,-0.13281 -1.76562,-0.39062 z m 0,0"
         style="fill:#231f20;fill-opacity:1;fill-rule:nonzero;stroke:none;stroke-width:1.33333"
         aria-label="Yes" />
      <g
         opacity="0.300003"
         id="g185"
         clip-path="url(#clipPath186)"
         transform="translate(-484.29218,0.16751934)">
        <path
           d="m 0,0 h -13.559 c -4.665,0 -8.446,3.782 -8.446,8.446 v 6.633 c 0,4.665 3.781,8.446 8.446,8.446 H 0 c 4.665,0 8.446,-3.781 8.446,-8.446 V 8.446 C 8.446,3.782 4.665,0 0,0"
           style="fill:#f2b638;fill-opacity:1;fill-rule:nonzero;stroke:#231f20;stroke-width:1;stroke-linecap:butt;stroke-linejoin:miter;stroke-miterlimit:10;stroke-dasharray:none;stroke-opacity:1"
           transform="matrix(1.3333333,0,0,-1.3333333,678.87373,160.7996)"
           clip-path="url(#clipPath184)"
           id="path185" />
      </g>
      <path
         id="path187"
         d="m 174.18048,139.85111 c -0.28125,-0.15625 -0.58985,-0.23437 -0.92188,-0.23437 -0.96094,0 -1.4375,0.59375 -1.4375,1.78125 v 1.29687 h 2.01563 v 1.26563 h -2.01563 v 7.375 h -1.51562 v -7.375 h -1.48438 v -1.26563 h 1.48438 v -1.35937 c 0,-0.92578 0.26562,-1.65625 0.79687,-2.1875 0.53125,-0.53125 1.20703,-0.79688 2.03125,-0.79688 0.4375,0 0.78516,0.0547 1.04688,0.15625 z m 0,0"
         style="fill:#231f20;fill-opacity:1;fill-rule:nonzero;stroke:none;stroke-width:1.33333"
         aria-label=" f" />
      <path
         id="path188"
         d="m 174.39533,153.00736 c 0,-1.25 0.22265,-2.20703 0.67187,-2.875 0.44531,-0.67578 1.08594,-1.01563 1.92188,-1.01563 1.60156,0 2.40625,1.25782 2.40625,3.76563 0,1.25 -0.22657,2.21484 -0.67188,2.89062 -0.44922,0.67969 -1.07422,1.01563 -1.875,1.01563 -0.77344,0 -1.375,-0.33203 -1.8125,-1 -0.42969,-0.66406 -0.64062,-1.59375 -0.64062,-2.78125 z m 4.07812,-0.48438 c -0.0625,-1.78125 -0.58594,-2.67187 -1.5625,-2.67187 -0.44922,0 -0.82031,0.23437 -1.10937,0.70312 -0.29297,0.46094 -0.46094,1.11719 -0.5,1.96875 z m -3.17187,0.70313 c 0.0195,0.92969 0.16406,1.63281 0.4375,2.10937 0.28125,0.46875 0.67187,0.70313 1.17187,0.70313 0.48828,0 0.86328,-0.24219 1.125,-0.73438 0.26953,-0.48828 0.42188,-1.17968 0.45313,-2.07812 z m 0,0"
         style="fill:#231f20;fill-opacity:1;fill-rule:nonzero;stroke:none;stroke-width:1.33333"
         aria-label="" />
      <g
         id="g188"
         aria-label="+"
         transform="matrix(1.3333333,0,0,1.3333333,179.86209,151.33512)">
        <path
           id="path189"
           d="M 7.4516828,-3.3278484 H 4.8969953 v 2.54296871 H 4.0180891 V -3.3278484 H 1.4751203 v -0.890625 h 2.5429688 v -2.5429688 h 0.8789062 v 2.5429688 h 2.5546875 z m 0,0"
           style="fill:#231f20;fill-opacity:1;fill-rule:nonzero;stroke:none" />
        <path
           id="path190"
           d="m 16.604027,-5.5661297 h -1.40625 v 3.7617188 c 0,0.5947265 0.210937,0.89062496 0.632812,0.89062496 0.146484,0 0.333984,-0.0380859 0.5625,-0.11718746 v 0.96093746 c -0.275391,0.09960938 -0.544922,0.15234375 -0.808594,0.15234375 -1.02539,0 -1.535156,-0.60058593 -1.535156,-1.80468751 v -3.84375 h -2.367187 v 3.7734375 c 0,0.82031251 -0.07031,1.41796876 -0.210938,1.7929687625 H 10.311058 C 10.466331,-0.38937187 10.545433,-0.98995781 10.545433,-1.8044109 v -3.7617188 c -0.515625,0.00879 -1.0283205,0.1962891 -1.5351564,0.5625 v -1.03125 c 0.3193359,-0.2958984 0.8349609,-0.4453125 1.5468754,-0.4453125 h 6.046875 z m 0,0"
           style="fill:#231f20;fill-opacity:1;fill-rule:nonzero;stroke:none" />
      </g>
      <g
         opacity="0.300003"
         id="g192"
         clip-path="url(#clipPath193)"
         transform="translate(-484.29218,0.16751934)">
        <path
           d="M 0,0 -41.838,-15.731 0,-32.378 38.012,-15.731 Z"
           style="fill:#78c832;fill-opacity:1;fill-rule:nonzero;stroke:#231f20;stroke-width:1;stroke-linecap:butt;stroke-linejoin:miter;stroke-miterlimit:10;stroke-dasharray:none;stroke-opacity:1"
           transform="matrix(1.3333333,0,0,-1.3333333,573.68747,75.543067)"
           clip-path="url(#clipPath191)"
           id="path192" />
      </g>
      <path
         id="path194"
         d="m 59.774225,98.937051 c 0.375,0.324218 0.867188,0.589843 1.484375,0.796875 0.625,0.210937 1.210938,0.312504 1.765625,0.312504 1.695313,0 2.546875,-0.601567 2.546875,-1.812504 0,-0.332032 -0.09375,-0.632813 -0.28125,-0.90625 -0.179687,-0.269532 -0.429687,-0.507813 -0.75,-0.71875 -0.3125,-0.207032 -0.90625,-0.53125 -1.78125,-0.96875 -1.210937,-0.601563 -2.007812,-1.160156 -2.390625,-1.671875 -0.386718,-0.519531 -0.578125,-1.113281 -0.578125,-1.78125 0,-1.007813 0.398438,-1.804688 1.203125,-2.390625 0.8125,-0.59375 1.832031,-0.890625 3.0625,-0.890625 1.195313,0 2.078125,0.148437 2.640625,0.4375 v 1.703125 c -0.730469,-0.5 -1.652344,-0.75 -2.765625,-0.75 -0.742187,0 -1.34375,0.15625 -1.8125,0.46875 -0.460937,0.304687 -0.6875,0.730469 -0.6875,1.28125 0,0.492187 0.160157,0.890625 0.484375,1.203125 0.320313,0.304687 1.019531,0.71875 2.09375,1.25 1.1875,0.574218 2.015625,1.148437 2.484375,1.71875 0.476563,0.5625 0.71875,1.199218 0.71875,1.90625 0,1.0625 -0.386719,1.882809 -1.15625,2.453129 -0.773437,0.5625 -1.839844,0.84375 -3.203125,0.84375 -0.480468,0 -1.042968,-0.0703 -1.6875,-0.20313 -0.636718,-0.13281 -1.101562,-0.30078 -1.390625,-0.5 z m 13.195312,2.187499 c -0.335937,0.1875 -0.781249,0.28125 -1.343749,0.28125 -1.554688,0 -2.328125,-0.85937 -2.328125,-2.578124 v -4.984375 h -1.484375 v -1.265625 h 1.484375 v -2.078125 l 1.531249,-0.484375 v 2.5625 h 2.140625 v 1.265625 h -2.140625 v 4.71875 c 0,0.5625 0.09375,0.96875 0.28125,1.21875 0.195313,0.242189 0.519532,0.359379 0.96875,0.359379 0.343751,0 0.640625,-0.0937 0.890625,-0.281254 z m 2.031251,-7.953124 c 0.851561,-0.53125 1.843749,-0.796875 2.968749,-0.796875 2.082032,0 3.125,1.09375 3.125,3.28125 v 5.562499 h -1.515625 v -1.343749 h -0.03125 c -0.60547,1.031249 -1.492188,1.546879 -2.656251,1.546879 -0.835937,0 -1.5,-0.22266 -2,-0.67188 -0.492187,-0.45703 -0.734375,-1.070312 -0.734375,-1.843749 0,-1.613282 0.953126,-2.554688 2.859375,-2.828125 l 2.5625,-0.359375 c 0,-1.40625 -0.585937,-2.109375 -1.75,-2.109375 -1.031249,0 -1.976563,0.351562 -2.828124,1.046875 z m 2.5625,3.984375 c -0.710939,0.09375 -1.199219,0.273437 -1.468751,0.53125 -0.273437,0.261718 -0.406249,0.625 -0.406249,1.09375 0,0.40625 0.144531,0.742187 0.4375,1 0.289061,0.261719 0.675781,0.390629 1.156249,0.390629 0.664063,0 1.210938,-0.234379 1.640626,-0.703129 0.4375,-0.46875 0.656249,-1.054688 0.656249,-1.765625 v -0.828125 z m 13.58203,3.328129 c 0,3.20703 -1.554688,4.8125 -4.656249,4.8125 -1.07422,0 -2.007813,-0.20313 -2.796876,-0.60938 v -1.46875 c 0.957032,0.53125 1.878907,0.79688 2.765625,0.79688 2.101563,0 3.156251,-1.10547 3.156251,-3.3125 v -0.921879 h -0.03125 c -0.65625,1.093749 -1.636719,1.640629 -2.9375,1.640629 -1.085938,0 -1.953126,-0.38282 -2.609375,-1.15625 -0.648437,-0.781254 -0.968751,-1.812504 -0.968751,-3.093754 0,-1.476563 0.359376,-2.644532 1.078126,-3.5 0.71875,-0.863282 1.675781,-1.296875 2.875,-1.296875 1.14453,0 2,0.460937 2.5625,1.375 h 0.03125 v -1.171875 h 1.531249 z m -1.531249,-4.406254 c 0,-0.664063 -0.230469,-1.238282 -0.6875,-1.71875 -0.44922,-0.476563 -1,-0.71875 -1.656251,-0.71875 -0.835937,0 -1.484374,0.308594 -1.953125,0.921875 -0.460937,0.605468 -0.6875,1.445312 -0.6875,2.515625 0,0.917968 0.222656,1.664062 0.671876,2.234375 0.445312,0.5625 1.039061,0.843749 1.781249,0.843749 0.738282,0 1.343751,-0.269531 1.8125,-0.812499 0.476563,-0.539063 0.718751,-1.226563 0.718751,-2.0625 z m 11.304691,1.203125 h -6.046879 c 0.03125,0.929687 0.285156,1.640625 0.765625,2.140625 0.476563,0.5 1.144531,0.750004 2,0.750004 0.968749,0 1.859375,-0.304692 2.671874,-0.921879 v 1.359379 c -0.761718,0.54296 -1.773437,0.8125 -3.03125,0.8125 -1.25,0 -2.226561,-0.39454 -2.921874,-1.1875 -0.699219,-0.789067 -1.046875,-1.890629 -1.046875,-3.296879 0,-1.320313 0.378907,-2.410157 1.140625,-3.265625 0.769531,-0.863282 1.726563,-1.296875 2.875,-1.296875 1.125,0 2.003905,0.367187 2.640624,1.09375 0.63281,0.71875 0.95313,1.734375 0.95313,3.046875 z m -1.531254,-1.21875 c 0,-0.78125 -0.183595,-1.382813 -0.546876,-1.8125 -0.367187,-0.425781 -0.882812,-0.640625 -1.546875,-0.640625 -0.605468,0 -1.132812,0.230468 -1.578125,0.6875 -0.449219,0.449218 -0.730468,1.039062 -0.843749,1.765625 z M 110.77422,101.2183 V 90.858926 c -0.24218,0.242187 -0.64843,0.511719 -1.21875,0.8125 -0.5625,0.292969 -1.08984,0.5 -1.57812,0.625 v -1.5 c 0.64453,-0.175781 1.33203,-0.457031 2.0625,-0.84375 0.72656,-0.394531 1.28516,-0.765625 1.67187,-1.109375 h 0.57813 V 101.2183 Z m 7.6875,-3.374999 c -0.13671,-0.382813 -0.20312,-0.796875 -0.20312,-1.234375 0,-0.34375 0.0781,-0.691407 0.23437,-1.046875 0.15625,-0.351563 0.55469,-0.835938 1.20313,-1.453125 0.65625,-0.625 1.05469,-1.09375 1.20312,-1.40625 0.14453,-0.3125 0.21875,-0.609375 0.21875,-0.890625 0,-0.5 -0.17968,-0.890625 -0.53125,-1.171875 -0.35547,-0.289063 -0.80468,-0.4375 -1.34375,-0.4375 -0.96093,0 -1.79296,0.375 -2.5,1.125 v -1.609375 c 0.86328,-0.539063 1.76563,-0.8125 2.70313,-0.8125 0.95703,0 1.72656,0.246094 2.3125,0.734375 0.58203,0.480469 0.875,1.140625 0.875,1.984375 0,0.398437 -0.0898,0.804687 -0.26563,1.21875 -0.16796,0.417969 -0.61718,0.96875 -1.34375,1.65625 -0.54297,0.511718 -0.90625,0.914062 -1.09375,1.203125 -0.1875,0.292968 -0.28125,0.609375 -0.28125,0.953125 0,0.375 0.0859,0.773437 0.26563,1.1875 z m -0.20312,2.546879 c 0,-0.26954 0.0977,-0.500004 0.29687,-0.687504 0.19532,-0.195313 0.4375,-0.296875 0.71875,-0.296875 0.26953,0 0.50391,0.101562 0.70313,0.296875 0.19531,0.1875 0.29687,0.417964 0.29687,0.687504 0,0.26171 -0.10156,0.49218 -0.29687,0.6875 -0.1875,0.19531 -0.41406,0.29687 -0.67188,0.29687 -0.3125,0 -0.57031,-0.10156 -0.76562,-0.29687 -0.1875,-0.19532 -0.28125,-0.42579 -0.28125,-0.6875 z m 0,0"
         style="fill:#231f20;fill-opacity:1;fill-rule:nonzero;stroke:none;stroke-width:1.33333"
         aria-label="Stage 1?" />
      <path
         id="path195"
         d="m 106.26251,113.45267 -2.98437,5.73438 v 3.34375 h -1.17188 v -3.3125 l -2.921872,-5.76563 h 1.343752 l 1.96875,4.01563 c 0,0.0117 0.0703,0.20312 0.21875,0.57812 h 0.0156 c 0.0391,-0.15625 0.11719,-0.34375 0.23438,-0.5625 l 2.0625,-4.03125 z m 5.25,6.125 h -4.54687 c 0.0195,0.69922 0.20703,1.23438 0.5625,1.60938 0.36328,0.375 0.86719,0.5625 1.51562,0.5625 0.72657,0 1.39453,-0.23438 2,-0.70313 v 1.03125 c -0.57422,0.40625 -1.32812,0.60938 -2.26562,0.60938 -0.9375,0 -1.67188,-0.29688 -2.20313,-0.89063 -0.52343,-0.59375 -0.78125,-1.42187 -0.78125,-2.48437 0,-0.98828 0.28516,-1.80469 0.85938,-2.45313 0.58203,-0.64453 1.30078,-0.96875 2.15625,-0.96875 0.84375,0 1.5039,0.27735 1.98437,0.82813 0.47657,0.54297 0.71875,1.30468 0.71875,2.28125 z m -1.15625,-0.92187 c 0,-0.58203 -0.14062,-1.03125 -0.42187,-1.34375 -0.27344,-0.32032 -0.65235,-0.48438 -1.14063,-0.48438 -0.46093,0 -0.85547,0.17188 -1.1875,0.51563 -0.33593,0.33593 -0.54687,0.77343 -0.64062,1.3125 z m 2.3086,2.46875 c 0.58203,0.41797 1.20703,0.625 1.875,0.625 0.89453,0 1.34375,-0.28907 1.34375,-0.875 0,-0.25 -0.10156,-0.45313 -0.29688,-0.60938 -0.19922,-0.16406 -0.59375,-0.35937 -1.1875,-0.57812 -0.71875,-0.28907 -1.1875,-0.57813 -1.40625,-0.85938 -0.21094,-0.28125 -0.3125,-0.625 -0.3125,-1.03125 0,-0.57031 0.23828,-1.03125 0.71875,-1.375 0.48828,-0.35156 1.08594,-0.53125 1.79688,-0.53125 0.55078,0 1.0664,0.10157 1.54687,0.29688 v 1.10937 c -0.49219,-0.3125 -1.04297,-0.46875 -1.65625,-0.46875 -0.36719,0 -0.66406,0.0781 -0.89062,0.23438 -0.23047,0.15625 -0.34375,0.37109 -0.34375,0.64062 0,0.25 0.082,0.44922 0.25,0.59375 0.16406,0.14844 0.53125,0.33594 1.09375,0.5625 0.72656,0.27344 1.21875,0.55469 1.46875,0.84375 0.25781,0.28125 0.39062,0.63672 0.39062,1.0625 0,0.59375 -0.24609,1.0625 -0.73437,1.40625 -0.49219,0.34375 -1.1211,0.51563 -1.89063,0.51563 -0.67969,0 -1.26562,-0.13282 -1.76562,-0.39063 z m 0,0"
         style="fill:#231f20;fill-opacity:1;fill-rule:nonzero;stroke:none;stroke-width:1.33333"
         aria-label="Yes" />
      <path
         id="path196"
         d="M 0,0 -0.024,-3.888"
         style="fill:none;stroke:#231f20;stroke-width:0.75;stroke-linecap:butt;stroke-linejoin:miter;stroke-miterlimit:10;stroke-dasharray:none;stroke-opacity:1"
         transform="matrix(1.3333333,0,0,-1.3333333,89.395292,118.88179)"
         clip-path="url(#clipPath197)" />
      <path
         id="path198"
         d="M 0,0 C -0.388,1.067 -1.054,2.393 -1.763,3.217 L 0.017,2.56 1.804,3.194 C 1.085,2.379 0.402,1.062 0,0"
         style="fill:#231f20;fill-opacity:1;fill-rule:nonzero;stroke:none"
         transform="matrix(1.3333333,0,0,-1.3333333,89.343292,127.08365)"
         clip-path="url(#clipPath199)" />
      <path
         id="path200"
         d="M 0,0 -0.025,-3.888"
         style="fill:none;stroke:#231f20;stroke-width:0.75;stroke-linecap:butt;stroke-linejoin:miter;stroke-miterlimit:10;stroke-dasharray:none;stroke-opacity:1"
         transform="matrix(1.3333333,0,0,-1.3333333,89.429152,70.528986)"
         clip-path="url(#clipPath201)" />
      <path
         id="path202"
         d="M 0,0 C -0.389,1.067 -1.055,2.393 -1.764,3.216 L 0.016,2.56 1.803,3.194 C 1.084,2.379 0.401,1.062 0,0"
         style="fill:#231f20;fill-opacity:1;fill-rule:nonzero;stroke:none"
         transform="matrix(1.3333333,0,0,-1.3333333,89.377152,78.730186)"
         clip-path="url(#clipPath203)" />
      <path
         id="path204"
         d="M 0,0 -0.035,-5.498"
         style="fill:none;stroke:#231f20;stroke-width:0.75;stroke-linecap:butt;stroke-linejoin:miter;stroke-miterlimit:10;stroke-dasharray:none;stroke-opacity:1"
         transform="matrix(1.3333333,0,0,-1.3333333,89.035952,165.40005)"
         clip-path="url(#clipPath205)" />
      <path
         id="path206"
         d="M 0,0 C -0.389,1.067 -1.055,2.393 -1.764,3.217 L 0.016,2.56 1.803,3.194 C 1.084,2.379 0.401,1.062 0,0"
         style="fill:#231f20;fill-opacity:1;fill-rule:nonzero;stroke:none"
         transform="matrix(1.3333333,0,0,-1.3333333,88.970892,175.74779)"
         clip-path="url(#clipPath207)" />
      <path
         id="path209"
         d="M 0,0 -0.019,-8.021"
         style="fill:none;stroke:#231f20;stroke-width:0.75;stroke-linecap:butt;stroke-linejoin:miter;stroke-miterlimit:10;stroke-dasharray:none;stroke-opacity:1"
         transform="matrix(1.3333333,0,0,-1.3333333,89.033292,251.71779)"
         clip-path="url(#clipPath210)" />
      <path
         id="path211"
         d="M 0,0 C -0.393,1.065 -1.063,2.388 -1.776,3.209 L 0.006,2.56 1.79,3.201 C 1.074,2.384 0.397,1.064 0,0"
         style="fill:#231f20;fill-opacity:1;fill-rule:nonzero;stroke:none"
         transform="matrix(1.3333333,0,0,-1.3333333,89.002092,265.42872)"
         clip-path="url(#clipPath212)" />
      <g
         opacity="0.300003"
         id="g214"
         clip-path="url(#clipPath215)"
         transform="translate(-484.29218,0.16751934)">
        <path
           d="m 0,0 h -63.247 c -4.777,0 -8.65,3.873 -8.65,8.65 0,4.777 3.873,8.65 8.65,8.65 H 0 C 4.777,17.3 8.65,13.427 8.65,8.65 8.65,3.873 4.777,0 0,0"
           style="fill:#eeead1;fill-opacity:1;fill-rule:nonzero;stroke:#231f20;stroke-width:1;stroke-linecap:butt;stroke-linejoin:miter;stroke-miterlimit:10;stroke-dasharray:none;stroke-opacity:1"
           transform="matrix(1.3333333,0,0,-1.3333333,615.85933,288.46893)"
           clip-path="url(#clipPath213)"
           id="path214" />
      </g>
      <path
         id="path216"
         d="m 70.582822,279.64017 c 0.375,0.32422 0.867188,0.58985 1.484375,0.79688 0.625,0.21093 1.210938,0.3125 1.765625,0.3125 1.695313,0 2.546875,-0.60157 2.546875,-1.8125 0,-0.33203 -0.09375,-0.63282 -0.28125,-0.90625 -0.179687,-0.26953 -0.429687,-0.50782 -0.75,-0.71875 -0.3125,-0.20703 -0.90625,-0.53125 -1.78125,-0.96875 -1.210937,-0.60157 -2.007812,-1.16016 -2.390625,-1.67188 -0.386718,-0.51953 -0.578125,-1.11328 -0.578125,-1.78125 0,-1.00781 0.398438,-1.80468 1.203125,-2.39062 0.8125,-0.59375 1.832031,-0.89063 3.0625,-0.89063 1.195313,0 2.078125,0.14844 2.640625,0.4375 v 1.70313 c -0.730469,-0.5 -1.652344,-0.75 -2.765625,-0.75 -0.742187,0 -1.34375,0.15625 -1.8125,0.46875 -0.460937,0.30469 -0.6875,0.73047 -0.6875,1.28125 0,0.49219 0.160157,0.89062 0.484375,1.20312 0.320313,0.30469 1.019532,0.71875 2.09375,1.25 1.1875,0.57422 2.015625,1.14844 2.484375,1.71875 0.476563,0.5625 0.71875,1.19922 0.71875,1.90625 0,1.0625 -0.386719,1.88281 -1.15625,2.45313 -0.773437,0.5625 -1.839843,0.84375 -3.203125,0.84375 -0.480468,0 -1.042968,-0.0703 -1.6875,-0.20313 -0.636718,-0.13281 -1.101562,-0.30078 -1.390625,-0.5 z m 13.1875,2.1875 c -0.335937,0.1875 -0.781249,0.28125 -1.34375,0.28125 -1.554687,0 -2.328125,-0.85937 -2.328125,-2.57812 v -4.98438 h -1.484375 v -1.26562 h 1.484375 v -2.07813 l 1.53125,-0.48437 v 2.5625 h 2.140625 v 1.26562 h -2.140625 v 4.71875 c 0,0.5625 0.09375,0.96875 0.28125,1.21875 0.195313,0.24219 0.519531,0.35938 0.96875,0.35938 0.34375,0 0.640625,-0.0937 0.890625,-0.28125 z m 1.109375,-4.14062 c 0,-1.42578 0.394532,-2.55078 1.1875,-3.375 0.800781,-0.82031 1.882813,-1.23438 3.25,-1.23438 1.289062,0 2.304688,0.39844 3.046875,1.1875 0.73828,0.79297 1.109375,1.89063 1.109375,3.29688 0,1.36718 -0.398437,2.46875 -1.1875,3.3125 -0.78125,0.83593 -1.835937,1.25 -3.15625,1.25 -1.292968,0 -2.324219,-0.40625 -3.09375,-1.21875 -0.773437,-0.8125 -1.15625,-1.88282 -1.15625,-3.21875 z m 1.5625,-0.0469 c 0,1 0.25,1.78907 0.75,2.35938 0.5,0.57422 1.175781,0.85937 2.03125,0.85937 0.875,0 1.539063,-0.28125 2,-0.84375 0.457031,-0.5625 0.6875,-1.36328 0.6875,-2.40625 0,-1.05078 -0.230469,-1.85937 -0.6875,-2.42187 -0.460937,-0.5625 -1.125,-0.84375 -2,-0.84375 -0.867188,0 -1.546874,0.29687 -2.046874,0.89062 -0.492188,0.58594 -0.734376,1.38672 -0.734376,2.40625 z M 100.2547,274.7964 c -0.25,-0.1875 -0.601566,-0.28125 -1.046878,-0.28125 -0.59375,0 -1.085938,0.28125 -1.46875,0.84375 -0.38672,0.55469 -0.578125,1.28125 -0.578125,2.1875 v 4.375 h -1.531251 v -8.64062 h 1.531251 v 1.75 h 0.03125 c 0.4375,-1.26953 1.191407,-1.90625 2.265626,-1.90625 0.34375,0 0.609377,0.043 0.796877,0.125 z m 8.28906,3.1875 h -6.04688 c 0.0313,0.92969 0.28516,1.64063 0.76563,2.14063 0.47656,0.5 1.14453,0.75 2,0.75 0.96875,0 1.85937,-0.30469 2.67187,-0.92188 v 1.35938 c -0.76171,0.54297 -1.77343,0.8125 -3.03125,0.8125 -1.25,0 -2.22656,-0.39453 -2.92187,-1.1875 -0.69922,-0.78906 -1.04688,-1.89063 -1.04688,-3.29688 0,-1.32031 0.37891,-2.41015 1.14063,-3.26562 0.76953,-0.86328 1.72656,-1.29688 2.875,-1.29688 1.125,0 2.0039,0.36719 2.64062,1.09375 0.63282,0.71875 0.95313,1.73438 0.95313,3.04688 z m -1.53125,-1.21875 c 0,-0.78125 -0.1836,-1.38281 -0.54688,-1.8125 -0.36718,-0.42578 -0.88281,-0.64062 -1.54687,-0.64062 -0.60547,0 -1.13281,0.23047 -1.57813,0.6875 -0.44922,0.44922 -0.73046,1.03906 -0.84375,1.76562 z m 0,0"
         style="fill:#231f20;fill-opacity:1;fill-rule:nonzero;stroke:none;stroke-width:1.33333"
         aria-label="Store" />
      <path
         id="path217"
         d="M 0,0 H 6"
         style="fill:none;stroke:#78c832;stroke-width:0.75;stroke-linecap:butt;stroke-linejoin:miter;stroke-miterlimit:10;stroke-dasharray:none;stroke-opacity:1"
         transform="matrix(1.3333333,0,0,-1.3333333,143.10102,277.10325)"
         clip-path="url(#clipPath218)" />
      <path
         id="path219"
         d="M 0,0 H 14.483"
         style="fill:none;stroke:#78c832;stroke-width:0.75;stroke-linecap:butt;stroke-linejoin:miter;stroke-miterlimit:10;stroke-dasharray:9.655, 9.655;stroke-dashoffset:0;stroke-opacity:1"
         transform="matrix(1.3333333,0,0,-1.3333333,163.97475,277.10325)"
         clip-path="url(#clipPath220)" />
      <path
         id="path221"
         d="M 0,0 H 6"
         style="fill:none;stroke:#78c832;stroke-width:0.75;stroke-linecap:butt;stroke-linejoin:miter;stroke-miterlimit:10;stroke-dasharray:none;stroke-opacity:1"
         transform="matrix(1.3333333,0,0,-1.3333333,189.72342,277.10325)"
         clip-path="url(#clipPath222)" />
      <path
         id="path223"
         d="M 0,0 V 6"
         style="fill:none;stroke:#78c832;stroke-width:0.75;stroke-linecap:butt;stroke-linejoin:miter;stroke-miterlimit:10;stroke-dasharray:none;stroke-opacity:1"
         transform="matrix(1.3333333,0,0,-1.3333333,197.72342,277.10325)"
         clip-path="url(#clipPath224)" />
      <path
         id="path225"
         d="M 0,0 V 57.23"
         style="fill:none;stroke:#78c832;stroke-width:0.75;stroke-linecap:butt;stroke-linejoin:miter;stroke-miterlimit:10;stroke-dasharray:10.406, 10.406;stroke-dashoffset:0;stroke-opacity:1"
         transform="matrix(1.3333333,0,0,-1.3333333,197.72342,255.22885)"
         clip-path="url(#clipPath226)" />
      <path
         id="path227"
         d="M 0,0 V 6"
         style="fill:none;stroke:#78c832;stroke-width:0.75;stroke-linecap:butt;stroke-linejoin:miter;stroke-miterlimit:10;stroke-dasharray:none;stroke-opacity:1"
         transform="matrix(1.3333333,0,0,-1.3333333,197.72342,171.98472)"
         clip-path="url(#clipPath228)" />
      <path
         id="path229"
         d="M 0,0 C 0.395,-1.065 1.069,-2.386 1.783,-3.205 L 0,-2.56 -1.783,-3.205 C -1.069,-2.386 -0.396,-1.065 0,0"
         style="fill:#78c832;fill-opacity:1;fill-rule:nonzero;stroke:none"
         transform="matrix(1.3333333,0,0,-1.3333333,197.72342,160.96712)"
         clip-path="url(#clipPath230)" />
      <path
         id="path231"
         d="M 0,0 33.702,0.11"
         style="fill:#231f20;fill-opacity:1;fill-rule:nonzero;stroke:#231f20;stroke-width:0.75;stroke-linecap:butt;stroke-linejoin:miter;stroke-miterlimit:10;stroke-dasharray:none;stroke-opacity:1"
         transform="matrix(1.3333333,0,0,-1.3333333,140.62182,97.177386)"
         clip-path="url(#clipPath232)" />
      <path
         id="path233"
         d="m 165.66876,95.491738 h -1.375 l -4.57812,-7.062499 c -0.125,-0.195313 -0.22656,-0.394532 -0.29688,-0.59375 h -0.0469 c 0.0312,0.210937 0.0469,0.636718 0.0469,1.28125 v 6.374999 h -1.15625 v -9.078124 h 1.46875 l 4.4375,6.937499 c 0.21875,0.335938 0.34375,0.542969 0.375,0.625 h 0.0312 c -0.043,-0.257812 -0.0625,-0.703124 -0.0625,-1.328124 v -6.234375 h 1.15625 z m 1.77344,-3.171875 c 0,-1.070312 0.29688,-1.914062 0.89063,-2.531249 0.60156,-0.625 1.41406,-0.9375 2.4375,-0.9375 0.96875,0 1.72656,0.304687 2.28125,0.90625 0.55078,0.59375 0.82812,1.417968 0.82812,2.468749 0,1.023438 -0.29687,1.851563 -0.89062,2.484375 -0.58594,0.625 -1.3711,0.9375 -2.35938,0.9375 -0.96875,0 -1.74609,-0.300781 -2.32812,-0.90625 -0.57422,-0.613281 -0.85938,-1.421875 -0.85938,-2.421875 z m 1.17188,-0.03125 c 0,0.742188 0.1875,1.328125 0.5625,1.765625 0.375,0.429688 0.8789,0.640625 1.51562,0.640625 0.65625,0 1.15625,-0.207031 1.5,-0.625 0.34375,-0.425781 0.51563,-1.03125 0.51563,-1.8125 0,-0.789062 -0.17188,-1.394531 -0.51563,-1.8125 -0.34375,-0.425781 -0.84375,-0.640625 -1.5,-0.640625 -0.63672,0 -1.14062,0.226563 -1.51562,0.671875 -0.375,0.4375 -0.5625,1.042969 -0.5625,1.8125 z m 0,0"
         style="fill:#231f20;fill-opacity:1;fill-rule:nonzero;stroke:none;stroke-width:1.33333"
         aria-label="No" />
      <path
         id="path234"
         d="M 0,0 -0.053,-23.207"
         style="fill:none;stroke:#231f20;stroke-width:0.75;stroke-linecap:butt;stroke-linejoin:miter;stroke-miterlimit:10;stroke-dasharray:none;stroke-opacity:1"
         transform="matrix(1.3333333,0,0,-1.3333333,185.55809,97.030319)"
         clip-path="url(#clipPath235)" />
      <path
         id="path236"
         d="M 0,0 C -0.394,1.066 -1.064,2.389 -1.776,3.209 L 0.005,2.56 1.79,3.201 C 1.074,2.384 0.396,1.064 0,0"
         style="fill:#231f20;fill-opacity:1;fill-rule:nonzero;stroke:none"
         transform="matrix(1.3333333,0,0,-1.3333333,185.48129,130.99059)"
         clip-path="url(#clipPath237)" />
      <path
         id="path238"
         d="M 0,0 35.154,0.115"
         style="fill:#231f20;fill-opacity:1;fill-rule:nonzero;stroke:none"
         transform="matrix(1.3333333,0,0,-1.3333333,138.67009,229.29779)"
         clip-path="url(#clipPath239)" />
      <path
         id="path240"
         d="M 0,0 32.891,0.107"
         style="fill:none;stroke:#231f20;stroke-width:0.75;stroke-linecap:butt;stroke-linejoin:miter;stroke-miterlimit:10;stroke-dasharray:none;stroke-opacity:1"
         transform="matrix(1.3333333,0,0,-1.3333333,141.68835,229.28805)"
         clip-path="url(#clipPath241)" />
      <path
         id="path242"
         d="M 0,0 C 1.066,-0.392 2.39,-1.062 3.211,-1.773 L 2.561,0.008 3.199,1.793 C 2.383,1.077 1.063,0.398 0,0"
         style="fill:#231f20;fill-opacity:1;fill-rule:nonzero;stroke:none"
         transform="matrix(1.3333333,0,0,-1.3333333,138.67009,229.29779)"
         clip-path="url(#clipPath243)" />
      <path
         id="path244"
         d="M 0,0 -0.191,51.725"
         style="fill:#231f20;fill-opacity:1;fill-rule:nonzero;stroke:#231f20;stroke-width:0.75;stroke-linecap:butt;stroke-linejoin:miter;stroke-miterlimit:10;stroke-dasharray:none;stroke-opacity:1"
         transform="matrix(1.3333333,0,0,-1.3333333,185.54115,229.14485)"
         clip-path="url(#clipPath245)" />
    </g>
  </g>
</svg>
